<?xml version="1.0" standalone="no"?>
<!DOCTYPE svg PUBLIC "-//W3C//DTD SVG 20010904//EN"
 "http://www.w3.org/TR/2001/REC-SVG-20010904/DTD/svg10.dtd">
<svg version="1.0" xmlns="http://www.w3.org/2000/svg"
 width="600.000000pt" height="324.000000pt" viewBox="0 0 600.000000 324.000000"
 preserveAspectRatio="xMidYMid meet">
<g transform="translate(0.000000,324.000000) scale(0.100000,-0.100000)"
fill="#000000" stroke="none">
<path d="M326 2827 c3 -10 9 -15 12 -12 3 3 0 11 -7 18 -10 9 -11 8 -5 -6z"/>
<path d="M370 1658 l0 -1178 1178 0 1177 0 0 110 c0 107 -1 110 -22 110 -22 0
-23 -3 -23 -87 l0 -88 -1135 0 -1135 0 0 1133 0 1132 1135 0 1135 0 0 -125 c0
-123 0 -125 23 -125 22 0 22 1 21 145 l-1 145 -1177 3 -1176 2 0 -1177z"/>
<path d="M1870 2454 c-147 -29 -273 -112 -320 -212 -43 -91 -49 -169 -50 -623
0 -265 4 -448 11 -485 30 -165 143 -280 316 -320 81 -19 266 -21 348 -4 149
31 266 133 311 271 15 47 18 109 22 474 2 254 0 457 -7 513 -21 194 -104 294
-301 364 -41 15 -87 21 -180 23 -69 2 -136 1 -150 -1z m205 -24 c99 -11 188
-37 180 -51 -4 -5 0 -6 8 -3 8 3 29 -9 48 -28 18 -18 29 -27 25 -19 -6 9 -5
12 5 9 8 -3 13 -11 11 -17 -1 -7 1 -10 6 -7 10 6 37 -10 37 -22 0 -5 11 -24
25 -41 40 -53 49 -97 60 -281 12 -207 5 -775 -10 -840 -6 -25 -11 -51 -12 -57
-1 -7 -6 -13 -11 -13 -5 0 -6 -7 -3 -16 5 -12 2 -15 -9 -10 -9 3 -14 2 -10 -3
7 -13 -12 -61 -25 -61 -6 0 -8 4 -5 10 3 5 1 10 -5 10 -6 0 -8 -10 -5 -23 4
-15 1 -28 -9 -36 -11 -9 -16 -10 -16 -2 0 6 5 11 10 11 6 0 10 5 10 11 0 17
-20 -1 -30 -27 -7 -17 -14 -22 -26 -17 -11 4 -15 3 -10 -5 3 -6 -3 -13 -14
-17 -11 -3 -20 -11 -20 -17 0 -6 -3 -9 -6 -6 -3 4 -22 -1 -42 -9 -20 -9 -48
-17 -62 -19 -14 -1 -40 -6 -58 -9 -27 -5 -32 -3 -26 7 6 11 5 11 -8 0 -19 -15
-181 -14 -171 1 3 5 -3 6 -15 3 -11 -4 -39 -2 -63 4 -24 6 -55 13 -67 15 -13
2 -27 7 -30 11 -4 4 0 5 9 2 9 -4 16 -1 16 6 0 6 -7 12 -16 13 -34 3 -53 10
-60 22 -5 7 -12 12 -17 11 -11 -2 -23 32 -16 44 3 5 0 6 -6 2 -6 -4 -8 -14 -5
-23 6 -15 5 -16 -9 -3 -9 8 -14 18 -12 21 2 3 -8 17 -21 29 -14 13 -25 28 -25
34 0 5 7 1 16 -10 8 -10 12 -12 8 -4 -4 8 -16 25 -27 38 -12 12 -21 30 -22 40
-1 9 -7 51 -13 92 -7 48 -10 225 -8 485 3 386 9 491 26 480 4 -2 5 6 3 18 -6
30 32 117 52 117 8 0 14 3 14 8 -3 19 3 21 24 7 13 -8 26 -12 30 -9 11 11 -3
24 -18 17 -9 -3 -15 1 -15 11 0 15 73 69 95 71 20 1 60 18 67 28 4 7 12 6 24
-4 16 -12 17 -12 11 4 -4 10 -3 16 1 13 4 -2 32 -1 62 4 78 11 76 11 175 0z"/>
<path d="M1800 2390 c-9 -6 -10 -10 -3 -10 6 0 15 5 18 10 8 12 4 12 -15 0z"/>
<path d="M1997 2264 c18 -8 4 -34 -14 -27 -8 3 -19 0 -24 -8 -8 -12 -10 -12
-18 0 -34 52 -55 -325 -46 -794 5 -229 11 -331 20 -359 8 -22 11 -44 8 -49 -3
-6 -1 -7 5 -3 7 4 22 0 34 -8 15 -11 26 -12 39 -5 11 6 20 6 24 -1 10 -17 45
8 38 27 -4 10 -2 14 4 10 6 -4 16 7 24 26 16 40 25 799 12 987 l-9 125 -42 43
c-23 23 -47 42 -54 41 -9 0 -10 -2 -1 -5z m63 -70 c13 -13 15 -89 15 -565 l0
-551 -24 -19 c-30 -25 -76 -24 -101 1 -20 20 -20 33 -20 554 0 327 4 545 10
561 17 44 83 55 120 19z m0 -1168 c0 -2 -7 -7 -16 -10 -8 -3 -12 -2 -9 4 6 10
25 14 25 6z"/>
<path d="M1991 1214 c0 -11 3 -14 6 -6 3 7 2 16 -1 19 -3 4 -6 -2 -5 -13z"/>
<path d="M1971 1114 c0 -11 3 -14 6 -6 3 7 2 16 -1 19 -3 4 -6 -2 -5 -13z"/>
<path d="M1958 2253 c7 -3 16 -2 19 1 4 3 -2 6 -13 5 -11 0 -14 -3 -6 -6z"/>
<path d="M2410 2226 c0 -2 7 -7 16 -10 8 -3 12 -2 9 4 -6 10 -25 14 -25 6z"/>
<path d="M1664 970 c0 -13 4 -16 10 -10 7 7 7 13 0 20 -6 6 -10 3 -10 -10z"/>
<path d="M1710 914 c0 -1 6 -7 14 -13 10 -9 15 -8 19 2 3 8 -3 13 -14 13 -11
0 -19 -1 -19 -2z"/>
<path d="M1005 2389 c-82 -84 -233 -165 -365 -197 l-70 -17 0 -91 0 -91 101
-7 c111 -7 161 -23 181 -58 10 -18 14 -137 16 -563 l4 -540 209 2 209 2 3 801
2 800 -125 0 -126 0 -39 -41z m262 -166 c-4 -104 -7 -455 -7 -780 l0 -593
-185 0 -184 0 -4 543 c-3 298 -6 547 -7 554 -2 7 -7 10 -10 8 -4 -3 -19 4 -33
15 -14 11 -31 20 -39 20 -10 0 -10 2 -1 8 7 4 -10 7 -37 6 -28 -1 -50 3 -50 8
0 5 -16 6 -35 2 -19 -3 -46 -3 -60 0 -23 6 -25 10 -25 71 0 63 1 65 26 65 15
0 23 4 19 10 -4 7 3 9 22 5 23 -5 25 -4 13 5 -13 10 -12 11 3 6 10 -3 33 2 50
11 18 9 38 16 45 15 6 -2 12 1 12 6 0 5 18 15 40 22 22 7 40 18 40 24 0 6 5 4
10 -4 9 -13 10 -13 10 0 0 15 58 60 77 60 6 0 14 -6 16 -12 4 -8 6 -7 6 3 1 9
8 22 16 29 9 7 13 20 10 28 -5 13 -3 13 11 1 15 -12 17 -12 12 1 -2 8 3 22 11
32 13 15 32 18 125 18 l109 0 -6 -187z m-277 112 c-7 -8 -17 -15 -22 -15 -6 0
-5 7 2 15 7 8 17 15 22 15 6 0 5 -7 -2 -15z"/>
<path d="M930 2290 c-9 -6 -10 -10 -3 -10 6 0 15 5 18 10 8 12 4 12 -15 0z"/>
<path d="M860 2220 c-9 -6 -10 -10 -3 -10 6 0 15 5 18 10 8 12 4 12 -15 0z"/>
<path d="M840 1980 c0 -5 5 -10 11 -10 5 0 7 5 4 10 -3 6 -8 10 -11 10 -2 0
-4 -4 -4 -10z"/>
<path d="M2340 2426 c0 -2 7 -7 16 -10 8 -3 12 -2 9 4 -6 10 -25 14 -25 6z"/>
<path d="M1635 2401 c-3 -5 -2 -12 3 -15 5 -3 9 1 9 9 0 17 -3 19 -12 6z"/>
<path d="M884 2352 c3 -5 0 -13 -6 -15 -9 -4 -10 -6 -1 -6 17 -1 25 16 12 25
-7 4 -9 3 -5 -4z"/>
<path d="M1543 2353 c4 -3 7 -9 7 -14 0 -6 -5 -7 -12 -3 -7 4 -8 3 -4 -5 4 -6
13 -8 19 -4 7 4 15 8 19 8 12 0 18 12 6 12 -7 0 -20 3 -28 5 -8 3 -12 3 -7 1z"/>
<path d="M2886 2348 c3 -5 10 -6 15 -3 13 9 11 12 -6 12 -8 0 -12 -4 -9 -9z"/>
<path d="M2416 2338 c3 -5 10 -6 15 -3 13 9 11 12 -6 12 -8 0 -12 -4 -9 -9z"/>
<path d="M2945 2320 c6 -30 16 -40 12 -12 -2 12 -6 24 -10 28 -3 4 -4 -4 -2
-16z"/>
<path d="M4780 2329 c-38 -8 -58 -30 -67 -71 -4 -19 -12 -28 -24 -28 -14 0
-19 -7 -19 -29 0 -16 5 -31 11 -33 7 -2 6 -30 -5 -90 -17 -102 -28 -125 -58
-130 -27 -4 -35 -32 -17 -54 17 -20 65 -11 96 18 26 24 38 57 53 148 18 112
17 110 50 110 27 0 30 3 30 30 0 25 -4 30 -25 30 -14 0 -25 4 -25 9 0 16 29
32 52 29 19 -3 23 1 23 26 0 35 -24 46 -75 35z m50 -30 c0 -5 -3 -8 -7 -8 -18
3 -31 -2 -49 -18 -22 -21 -29 -43 -13 -43 5 0 7 -5 4 -10 -4 -6 -10 -8 -14 -6
-4 3 -8 -1 -8 -8 0 -7 6 -13 13 -13 7 0 11 4 9 8 -3 4 2 9 10 13 24 9 17 -12
-10 -30 -14 -9 -25 -22 -24 -28 1 -6 -1 -22 -4 -36 -4 -14 -9 -41 -13 -60 -13
-77 -17 -90 -25 -90 -5 0 -6 -7 -3 -15 4 -10 -4 -19 -25 -28 -17 -7 -28 -16
-24 -20 3 -4 4 -7 1 -7 -3 0 -12 8 -19 17 -8 9 -9 14 -2 10 6 -4 18 -1 26 7 8
8 18 12 22 8 5 -4 5 -1 1 6 -4 7 -1 23 6 35 8 12 15 42 17 67 1 25 6 46 11 48
5 2 5 13 0 27 -8 20 -6 22 13 17 19 -5 19 -3 -6 19 l-28 24 25 29 c14 17 23
33 20 38 -3 4 0 8 6 8 6 0 8 5 4 12 -5 7 -3 8 6 3 10 -6 12 -4 7 9 -4 10 -3
15 3 11 6 -3 10 -2 10 3 0 5 14 9 30 10 17 0 30 -4 30 -9z"/>
<path d="M2463 2294 c0 -17 2 -22 7 -13 5 6 6 18 3 26 -8 19 -10 16 -10 -13z"/>
<path d="M2670 2313 c0 -4 -14 -80 -30 -168 -16 -88 -30 -163 -30 -167 0 -5
18 -8 39 -8 l39 0 11 63 c11 63 14 144 4 102 -3 -11 -11 -27 -19 -35 -7 -9
-11 -26 -8 -40 5 -20 3 -22 -5 -10 -6 8 -11 10 -11 5 0 -6 5 -16 12 -23 9 -9
9 -12 -1 -12 -7 0 -9 -4 -6 -10 3 -5 -1 -10 -10 -10 -12 0 -14 8 -10 41 3 22
9 48 15 58 5 10 7 21 3 24 -3 4 -1 12 4 19 6 7 10 25 9 40 -1 14 1 25 4 23 4
-2 4 10 2 27 -4 23 -2 29 8 23 10 -6 12 -3 8 13 -4 15 -2 19 8 15 16 -6 18
-24 6 -38 -5 -6 -6 -23 -2 -40 l6 -30 11 35 c7 19 13 51 15 70 3 34 2 35 -34
38 -21 2 -38 0 -38 -5z"/>
<path d="M2806 2293 c-8 -16 -27 -45 -44 -65 -16 -21 -29 -48 -28 -60 1 -13
-2 -26 -7 -29 -5 -3 -4 -24 2 -45 6 -21 15 -58 21 -81 10 -42 12 -43 51 -43
41 0 41 0 34 33 -11 49 -36 120 -47 135 -8 9 2 25 35 61 48 51 80 104 70 115
-4 3 -21 6 -39 6 -26 0 -37 -6 -48 -27z m54 -8 c0 -8 -93 -120 -99 -120 -3 0
-4 -4 -3 -10 2 -5 0 -6 -4 -2 -10 10 -15 38 -6 33 9 -4 56 47 60 65 5 21 23
39 38 39 8 0 14 -2 14 -5z m-94 -159 c8 -8 14 -27 14 -43 0 -22 2 -25 11 -13
9 13 10 13 6 0 -2 -8 0 -24 6 -35 l10 -20 -24 20 -24 20 15 -20 c8 -11 20 -23
25 -27 7 -5 7 -8 0 -8 -20 0 -34 16 -39 45 -13 70 -18 85 -28 79 -7 -4 -8 -2
-4 4 9 15 14 15 32 -2z"/>
<path d="M2825 2270 c-3 -6 1 -7 9 -4 18 7 21 14 7 14 -6 0 -13 -4 -16 -10z"/>
<path d="M3043 2265 c0 -8 4 -12 9 -9 5 3 6 10 3 15 -9 13 -12 11 -12 -6z"/>
<path d="M3266 2267 c3 -10 9 -15 12 -12 3 3 0 11 -7 18 -10 9 -11 8 -5 -6z"/>
<path d="M3759 2263 c-13 -17 -13 -17 6 -3 11 8 22 16 24 17 2 2 0 3 -6 3 -6
0 -17 -8 -24 -17z"/>
<path d="M3890 2276 c0 -2 7 -7 16 -10 8 -3 12 -2 9 4 -6 10 -25 14 -25 6z"/>
<path d="M4170 2271 c-8 -6 -18 -7 -24 -4 -5 3 -6 1 -2 -5 5 -8 13 -9 25 -2
10 5 22 6 26 2 5 -4 5 -1 1 6 -8 14 -7 14 -26 3z"/>
<path d="M4265 2269 c-4 -6 -4 -13 -1 -16 3 -4 6 0 6 7 0 9 10 5 28 -11 l27
-24 -24 28 c-28 31 -28 31 -36 16z"/>
<path d="M5174 2265 c-10 -8 -17 -15 -14 -15 31 -7 36 -6 36 11 0 11 -1 19 -1
19 -1 0 -10 -7 -21 -15z"/>
<path d="M4087 2253 c3 -7 6 -13 8 -13 2 0 5 6 8 13 3 8 -1 14 -8 14 -7 0 -11
-6 -8 -14z"/>
<path d="M3226 2247 c3 -10 9 -15 12 -12 3 3 0 11 -7 18 -10 9 -11 8 -5 -6z"/>
<path d="M3695 2249 c-4 -6 -5 -12 -2 -15 2 -3 7 2 10 11 7 17 1 20 -8 4z"/>
<path d="M3086 2230 c-53 -16 -87 -61 -100 -132 -7 -41 8 -113 26 -124 20 -12
70 -6 89 12 17 16 19 16 19 1 0 -12 9 -17 30 -17 29 0 30 2 30 43 1 23 7 69
15 102 19 78 19 92 -2 103 -30 16 -77 21 -107 12z m24 -24 c0 -2 -7 -6 -15
-10 -8 -3 -15 -1 -15 4 0 6 7 10 15 10 8 0 15 -2 15 -4z m70 -15 c6 -10 3 -19
-8 -29 -16 -12 -15 -13 3 -8 20 6 20 6 1 -9 -11 -8 -15 -15 -9 -15 8 0 7 -14
-2 -45 -8 -24 -12 -54 -10 -65 5 -24 -7 -26 -25 -5 -10 12 -9 20 4 39 9 14 13
32 10 40 -3 8 -1 23 5 34 7 14 5 26 -8 48 -18 30 -18 30 6 29 13 0 28 -6 33
-14z m-50 -19 c0 -31 -25 -124 -36 -133 -36 -30 -47 54 -14 109 18 29 50 44
50 24z m-77 -9 c4 -3 2 -12 -4 -20 -6 -7 -8 -13 -4 -13 4 0 2 -7 -5 -15 -6 -8
-9 -18 -6 -23 3 -5 1 -23 -3 -40 -8 -25 -6 -30 5 -25 8 3 14 0 14 -7 0 -6 4
-9 9 -6 5 3 12 -1 15 -9 4 -12 2 -13 -12 -7 -9 5 -23 7 -29 5 -7 -3 -13 0 -13
6 0 20 -2 26 -11 38 -7 7 -6 14 1 18 5 3 7 17 4 30 -3 12 -1 26 5 30 6 3 9 11
5 16 -3 5 -2 9 3 8 20 -3 27 2 13 11 -8 5 -10 10 -4 10 6 0 14 -3 17 -7z"/>
<path d="M3151 2184 c0 -11 3 -14 6 -6 3 7 2 16 -1 19 -3 4 -6 -2 -5 -13z"/>
<path d="M3805 2233 c-35 -9 -72 -41 -89 -77 -22 -47 -21 -137 2 -166 22 -27
65 -30 91 -6 16 15 19 15 24 1 4 -8 18 -15 32 -15 21 0 25 5 25 28 0 15 9 67
19 115 l18 88 -21 14 c-26 16 -74 25 -101 18z m49 -25 c-3 -4 0 -9 5 -9 6 -1
15 -2 20 -3 19 -2 24 -17 13 -39 -11 -22 -22 -85 -22 -124 0 -26 -17 -40 -32
-25 -6 6 -6 16 0 28 18 36 30 104 18 104 -6 1 0 10 14 22 14 12 18 19 10 17
-8 -3 -25 4 -37 16 -20 19 -20 21 -3 21 10 0 16 -4 14 -8z m-56 -12 c-10 -7
-18 -18 -18 -25 0 -6 -5 -11 -11 -11 -5 0 -7 -4 -4 -10 3 -5 1 -10 -5 -10 -6
0 -9 -4 -6 -9 3 -5 1 -23 -5 -41 -10 -28 -9 -34 17 -62 16 -17 24 -28 17 -24
-6 3 -15 1 -18 -4 -5 -8 -13 -6 -25 5 -22 20 -22 122 0 135 8 5 12 12 8 15
-10 11 37 52 62 54 3 0 -3 -6 -12 -13z m47 -33 c-3 -10 -11 -41 -17 -70 -10
-50 -28 -70 -50 -57 -14 9 -2 88 18 119 19 29 60 36 49 8z"/>
<path d="M3846 2025 c-3 -8 -1 -15 4 -15 6 0 10 7 10 15 0 8 -2 15 -4 15 -2 0
-6 -7 -10 -15z"/>
<path d="M3742 2024 c10 -10 20 -16 22 -13 3 3 -5 11 -17 18 -21 13 -21 12 -5
-5z"/>
<path d="M4215 2233 c-11 -3 -28 -12 -37 -21 -16 -14 -18 -14 -18 1 0 12 -9
17 -30 17 -16 0 -30 -1 -30 -3 0 -2 -9 -52 -20 -112 -27 -147 -27 -145 15
-145 19 0 35 1 35 3 15 96 38 182 52 191 31 19 36 -5 18 -97 -9 -48 -14 -89
-12 -92 3 -3 20 -5 37 -5 l32 0 17 83 c22 115 21 152 -6 171 -12 9 -25 15 -28
15 -3 -1 -14 -4 -25 -6z m20 -23 c-3 -5 1 -10 9 -10 22 0 29 -19 14 -37 -11
-14 -11 -16 1 -8 11 6 12 2 6 -21 -5 -16 -8 -39 -8 -52 1 -18 -3 -22 -16 -17
-13 5 -14 4 -3 -6 14 -15 16 -33 2 -24 -5 3 -10 -1 -10 -10 0 -10 5 -13 12 -9
7 4 8 3 4 -4 -4 -7 -12 -12 -18 -12 -7 0 -8 17 -3 53 15 103 14 111 -14 135
-14 13 -21 21 -16 18 6 -2 17 -1 25 5 19 11 23 11 15 -1z m-77 -29 c3 -9 0
-11 -8 -6 -10 6 -12 4 -7 -9 4 -9 3 -15 -2 -12 -5 3 -9 -18 -10 -46 0 -28 -6
-55 -12 -58 -6 -4 -9 -15 -7 -26 2 -11 -4 -20 -14 -22 -10 -2 -18 2 -18 8 0 6
4 9 8 6 4 -2 8 3 9 12 1 9 4 28 8 42 5 19 4 22 -4 10 -15 -21 -13 -5 4 37 8
19 15 46 15 60 0 17 5 24 17 21 9 -2 18 -9 21 -17z"/>
<path d="M5030 2222 c-102 -51 -109 -236 -10 -256 75 -15 141 50 148 144 5 69
-8 97 -53 116 -43 18 -43 18 -85 -4z m79 -27 c31 -15 43 -43 34 -78 -3 -12 -5
-30 -5 -39 1 -21 -13 -24 -24 -6 -4 6 -2 14 4 16 7 2 8 11 2 27 -6 15 -6 27 0
30 6 4 10 1 10 -6 0 -7 3 -9 7 -5 5 4 1 13 -8 19 -9 7 -18 17 -20 22 -2 6 -7
9 -11 8 -5 -2 -8 2 -8 8 0 5 -4 7 -10 4 -5 -3 -10 -1 -10 4 0 14 6 14 39 -4z
m-73 -10 c-11 -8 -17 -15 -13 -15 5 0 2 -6 -5 -14 -9 -9 -15 -10 -20 -3 -9 15
-1 26 26 37 31 13 34 11 12 -5z m59 -26 c12 -19 -6 -100 -26 -120 -17 -17 -23
-18 -36 -8 -17 14 -13 82 7 119 11 21 45 27 55 9z m-95 -53 c-13 -13 -13 -56
1 -56 5 0 7 -4 4 -10 -3 -5 0 -10 7 -10 9 0 9 -3 -2 -10 -21 -13 -27 -12 -34
6 -3 8 -2 12 4 9 6 -3 10 -1 10 4 0 6 -4 11 -8 11 -5 0 -9 14 -9 30 0 17 4 30
9 30 4 0 8 5 8 11 0 5 -5 7 -12 3 -7 -4 -8 -3 -4 5 6 9 11 9 22 0 10 -8 12
-15 4 -23z m120 -67 c0 -15 -26 -39 -34 -32 -3 4 -6 1 -6 -6 0 -7 -5 -9 -11
-5 -8 4 -5 11 9 18 20 11 22 14 22 37 0 5 5 7 10 4 6 -3 10 -11 10 -16z m-100
-41 c0 -10 2 -10 9 0 6 11 10 10 19 -1 9 -11 7 -13 -11 -11 -12 1 -24 3 -27 4
-3 1 -9 2 -13 1 -5 -1 -6 3 -2 9 9 14 25 13 25 -2z"/>
<path d="M3363 2153 c3 -43 13 -97 21 -120 14 -39 13 -42 -8 -62 -12 -12 -32
-21 -44 -21 -18 0 -22 -6 -22 -29 0 -62 64 -49 129 25 45 51 129 212 134 254
2 22 -2 25 -33 28 l-35 2 -27 -82 c-14 -46 -23 -87 -18 -91 7 -8 24 9 25 23 1
20 30 90 38 90 5 0 7 7 4 15 -4 8 -1 17 4 21 28 17 -16 -113 -54 -164 -20 -26
-36 20 -37 106 l0 82 -41 0 -42 0 6 -77z m55 -17 c2 -39 8 -73 13 -74 5 -2 16
-17 25 -34 9 -17 11 -27 6 -24 -6 3 -13 -1 -16 -10 -3 -9 -11 -12 -18 -8 -8 5
-7 0 2 -11 8 -10 10 -16 4 -12 -7 4 -14 1 -17 -7 -3 -7 -21 -22 -41 -34 -22
-13 -33 -16 -30 -7 3 7 17 16 30 19 14 4 22 11 19 16 -3 5 -1 11 4 14 5 3 14
20 20 36 5 17 6 28 1 25 -10 -6 -15 8 -29 90 -6 31 -6 52 0 56 5 3 7 12 4 21
-3 8 0 15 7 15 9 0 14 -22 16 -71z"/>
<path d="M3401 2104 c0 -11 3 -14 6 -6 3 7 2 16 -1 19 -3 4 -6 -2 -5 -13z"/>
<path d="M5336 2128 c-10 -57 -20 -115 -23 -130 -5 -27 -4 -28 34 -28 l40 0
13 86 c12 77 16 87 38 95 14 6 31 8 38 5 12 -5 24 23 24 57 0 22 -37 23 -62 0
-17 -15 -18 -15 -18 0 0 12 -9 17 -33 17 l-32 0 -19 -102z m72 60 c7 -7 12
-17 12 -22 0 -6 -5 -3 -11 7 -5 9 -15 17 -22 17 -9 0 -9 -2 0 -8 18 -11 -2
-136 -21 -125 -6 4 -5 -1 3 -10 11 -14 11 -18 -2 -23 -9 -3 -14 -13 -11 -22 4
-13 3 -13 -6 2 -10 15 -9 20 1 27 10 6 10 9 2 9 -7 0 -11 6 -9 13 3 6 7 25 10
40 4 15 11 25 16 22 5 -3 12 -1 15 5 4 6 1 9 -6 8 -6 -2 -14 3 -17 11 -3 8 0
11 7 7 7 -5 9 -1 5 8 -7 18 1 46 14 46 4 0 13 -5 20 -12z"/>
<path d="M3982 2175 c0 -16 2 -22 5 -12 2 9 2 23 0 30 -3 6 -5 -1 -5 -18z"/>
<path d="M4875 2190 c3 -5 8 -10 11 -10 2 0 4 5 4 10 0 6 -5 10 -11 10 -5 0
-7 -4 -4 -10z"/>
<path d="M2541 2154 c0 -11 3 -14 6 -6 3 7 2 16 -1 19 -3 4 -6 -2 -5 -13z"/>
<path d="M2859 2153 c-13 -16 -12 -17 4 -4 16 13 21 21 13 21 -2 0 -10 -8 -17
-17z"/>
<path d="M4895 2160 c3 -5 8 -10 11 -10 2 0 4 5 4 10 0 6 -5 10 -11 10 -5 0
-7 -4 -4 -10z"/>
<path d="M4885 2119 c-4 -6 -5 -12 -2 -15 2 -3 7 2 10 11 7 17 1 20 -8 4z"/>
<path d="M1451 2024 c0 -11 3 -14 6 -6 3 7 2 16 -1 19 -3 4 -6 -2 -5 -13z"/>
<path d="M5155 1997 c-23 -23 -25 -27 -8 -18 12 6 25 16 28 21 4 6 11 8 16 5
5 -3 6 1 3 9 -3 9 -7 15 -8 15 0 -1 -14 -15 -31 -32z"/>
<path d="M4900 1816 l0 -75 -36 6 -35 6 3 -44 c3 -42 5 -44 36 -47 l32 -3 0
-195 c0 -157 3 -201 16 -225 25 -49 97 -70 183 -53 30 6 32 9 29 43 -3 36 -3
36 -53 39 -27 2 -55 8 -62 14 -10 8 -13 57 -13 194 l0 184 65 0 65 0 0 34 c0
45 -19 59 -79 54 l-50 -3 -3 70 -3 70 -47 3 -48 3 0 -75z m68 42 c13 -13 17
-72 5 -65 -5 3 -8 -10 -8 -28 0 -20 4 -31 11 -28 6 2 14 -2 17 -10 4 -10 19
-13 55 -10 29 3 53 0 57 -6 4 -7 -8 -11 -32 -12 l-38 -2 35 -8 c29 -7 26 -7
-17 -4 -29 2 -53 0 -53 -5 0 -5 -12 -17 -27 -25 -16 -9 -21 -14 -13 -12 13 4
15 -18 12 -161 -2 -110 -7 -171 -15 -182 -10 -13 -10 -13 4 -2 14 10 18 10 23
-4 3 -9 4 -19 1 -24 -3 -4 3 -14 12 -21 12 -10 14 -10 9 -1 -4 6 -2 12 3 12 6
0 11 -4 11 -9 0 -4 18 -7 40 -5 34 2 40 0 38 -14 -3 -17 -17 -32 -31 -32 -5 0
-6 3 -4 8 3 4 -10 8 -29 9 -19 1 -32 -2 -29 -6 2 -5 -7 -6 -21 -3 -19 3 -22 7
-12 13 10 7 9 9 -4 9 -38 0 -45 32 -47 222 -1 100 -5 186 -7 190 -3 4 0 8 5 8
6 0 11 5 11 11 0 5 -5 7 -10 4 -6 -3 -13 0 -16 9 -3 8 -11 13 -19 10 -7 -3
-15 4 -18 15 -3 12 -1 19 4 15 5 -3 9 0 9 6 0 6 4 9 8 6 5 -3 16 4 25 15 9 10
13 19 9 19 -4 0 0 5 8 10 10 7 11 10 2 10 -8 0 -10 9 -6 28 15 68 19 73 42 50z"/>
<path d="M4888 1703 c7 -3 16 -2 19 1 4 3 -2 6 -13 5 -11 0 -14 -3 -6 -6z"/>
<path d="M3153 1792 c-9 -6 -7 -11 6 -19 15 -10 19 -9 17 2 -3 20 -10 25 -23
17z"/>
<path d="M4155 1791 c-3 -5 0 -13 6 -17 7 -4 9 -3 5 4 -3 5 0 13 6 15 9 4 10
6 1 6 -6 1 -14 -3 -18 -8z"/>
<path d="M5264 1792 c3 -5 0 -13 -6 -15 -9 -4 -10 -6 -1 -6 17 -1 25 16 12 25
-7 4 -9 3 -5 -4z"/>
<path d="M2643 1775 c0 -8 4 -12 9 -9 5 3 6 10 3 15 -9 13 -12 11 -12 -6z"/>
<path d="M3908 1773 c7 -3 16 -2 19 1 4 3 -2 6 -13 5 -11 0 -14 -3 -6 -6z"/>
<path d="M5540 1776 c0 -3 9 -10 19 -16 15 -7 22 -7 27 2 4 7 4 10 -1 6 -4 -4
-16 -3 -26 3 -11 5 -19 7 -19 5z"/>
<path d="M2745 1754 c-47 -13 -87 -38 -99 -63 -25 -48 -29 -113 -11 -159 20
-49 50 -68 162 -101 103 -31 132 -83 77 -138 -25 -25 -28 -26 -135 -21 l-110
6 3 -37 c3 -34 6 -37 53 -49 73 -19 208 -11 242 14 46 35 66 70 71 126 8 106
-32 152 -161 184 -111 27 -145 77 -91 131 25 25 28 26 128 20 l102 -6 -4 35
c-3 27 -11 38 -30 45 -30 12 -168 20 -197 13z m140 -28 c11 -2 27 -4 36 -5 9
0 19 -8 22 -16 5 -12 -10 -14 -98 -12 -64 2 -101 -1 -98 -7 4 -5 -1 -7 -12 -2
-16 6 -16 4 -4 -11 8 -9 9 -14 2 -10 -6 4 -14 3 -18 -2 -9 -15 -37 0 -31 16 3
8 1 11 -4 8 -6 -3 -10 -4 -10 -1 0 10 65 41 100 47 32 6 61 5 115 -5z m-184
-126 c1 -25 1 -49 0 -53 -1 -5 3 -6 8 -3 5 3 13 0 19 -7 14 -17 -1 -42 -19
-32 -12 7 -12 6 -1 -6 11 -12 15 -11 27 5 8 10 19 15 25 11 8 -5 6 -11 -6 -19
-13 -10 -14 -15 -5 -20 7 -5 15 -5 18 -2 4 3 0 6 -8 6 -8 0 -6 5 7 14 21 15
68 11 59 -4 -3 -4 5 -8 18 -9 43 -1 56 -4 50 -14 -3 -5 5 -7 18 -3 13 3 18 3
11 0 -18 -9 -4 -24 16 -17 9 3 14 3 10 -2 -4 -4 0 -13 8 -20 18 -12 27 -128
10 -117 -5 3 -7 -2 -3 -11 3 -10 2 -17 -3 -17 -6 0 -10 5 -10 12 0 6 -3 8 -6
5 -4 -4 -1 -13 6 -22 9 -11 9 -15 1 -15 -7 0 -10 -4 -7 -9 7 -11 -43 -33 -56
-25 -7 5 -8 2 -3 -6 5 -9 2 -10 -14 -5 -11 3 -21 3 -21 -2 0 -9 -81 -8 -150 1
-19 3 -38 5 -41 5 -3 1 -6 7 -6 14 0 7 13 14 29 15 17 1 27 -2 24 -7 -4 -5 -2
-13 4 -16 6 -4 9 -1 8 7 -2 9 11 14 42 16 35 2 42 0 30 -9 -12 -9 -11 -9 5 -3
11 4 35 8 53 9 18 1 36 6 40 10 4 5 0 5 -8 0 -12 -6 -13 -5 -3 5 10 11 17 10
35 -6 l23 -19 -17 21 c-19 22 -24 39 -8 29 5 -3 8 9 6 29 -1 19 1 33 6 30 4
-3 8 -1 8 5 0 5 -4 13 -10 16 -5 3 -10 11 -10 16 0 6 4 8 9 4 5 -3 13 0 17 6
4 7 3 9 -3 6 -13 -8 -75 37 -65 48 4 4 -2 5 -13 1 -11 -3 -27 -1 -35 5 -12 9
-11 10 5 4 16 -5 17 -4 8 6 -10 10 -15 9 -28 -1 -11 -9 -15 -9 -15 -1 0 7 -5
9 -11 6 -12 -8 -64 11 -95 35 -16 12 -19 21 -13 32 6 11 5 19 -2 24 -8 4 -9 3
-5 -4 4 -7 2 -12 -4 -12 -8 0 -11 20 -9 58 3 70 5 75 29 59 15 -9 20 -24 21
-57z"/>
<path d="M2701 1684 c0 -11 3 -14 6 -6 3 7 2 16 -1 19 -3 4 -6 -2 -5 -13z"/>
<path d="M2785 1490 c3 -5 8 -10 11 -10 2 0 4 5 4 10 0 6 -5 10 -11 10 -5 0
-7 -4 -4 -10z"/>
<path d="M2880 1436 c0 -2 7 -7 16 -10 8 -3 12 -2 9 4 -6 10 -25 14 -25 6z"/>
<path d="M2937 1323 c3 -7 8 -13 12 -13 4 0 8 6 8 13 0 8 -6 14 -13 14 -7 0
-10 -6 -7 -14z"/>
<path d="M3952 1748 c-43 -15 -98 -77 -114 -130 -7 -24 -12 -94 -12 -158 0
-107 2 -120 28 -173 22 -45 37 -62 69 -79 52 -26 161 -35 240 -18 56 11 57 12
57 46 0 20 -5 34 -12 35 -7 0 -54 0 -103 -1 -132 -2 -169 21 -182 115 l-6 45
155 0 155 0 6 56 c3 30 2 80 -3 111 -18 110 -67 154 -178 159 -37 2 -82 -2
-100 -8z m141 -21 c-3 -5 1 -8 8 -7 25 4 59 -12 59 -27 0 -9 5 -11 13 -7 9 6
9 4 -1 -8 -10 -13 -10 -18 -1 -24 8 -5 9 -3 4 6 -5 8 -3 11 5 8 14 -4 14 -8
24 -125 5 -65 4 -73 -11 -73 -15 0 -15 -2 -4 -9 9 -6 -39 -10 -124 -10 -91 -1
-144 -6 -153 -14 -10 -8 -13 -25 -9 -63 3 -28 1 -57 -3 -65 -5 -8 -4 -19 2
-27 8 -9 8 -16 -2 -25 -10 -9 -11 -9 -6 1 4 6 2 12 -3 12 -6 0 -11 9 -11 21 0
11 -4 18 -9 15 -21 -14 -30 261 -9 282 9 9 9 12 0 12 -10 0 -10 4 0 19 7 11
16 18 20 15 4 -3 5 2 2 10 -4 9 0 18 9 22 9 3 13 12 10 21 -4 11 -2 14 5 9 7
-4 12 -2 12 4 0 6 4 8 10 5 22 -13 49 -13 54 1 4 11 2 12 -14 4 -13 -7 -21 -7
-25 0 -4 6 -3 10 2 9 4 -1 15 0 23 4 35 13 47 15 86 14 23 -1 40 -6 37 -10z
m-167 -415 c-3 -5 4 -16 15 -25 11 -10 17 -23 13 -30 -5 -8 -2 -7 9 2 15 12
20 9 19 -9 0 -3 17 -6 38 -6 22 -1 51 -5 65 -8 19 -5 25 -4 19 5 -5 8 -1 11
13 7 11 -3 29 -1 39 5 17 9 18 9 5 -6 -17 -21 -8 -22 12 -2 13 13 16 13 21 -1
3 -8 2 -12 -4 -9 -6 3 -10 1 -10 -6 0 -7 -3 -9 -6 -6 -4 3 -16 1 -28 -5 -26
-14 -166 -19 -163 -5 1 5 -4 12 -12 15 -9 3 -11 0 -6 -8 6 -9 3 -9 -14 0 -12
6 -19 15 -16 20 3 5 0 12 -6 16 -8 4 -9 3 -5 -4 4 -7 2 -12 -4 -12 -7 0 -9 8
-5 19 3 11 1 22 -4 25 -12 8 -3 36 11 36 5 0 7 -4 4 -8z"/>
<path d="M3962 1677 c-23 -16 -42 -36 -42 -45 0 -13 -2 -14 -9 -4 -6 10 -10 9
-14 -7 -3 -12 -1 -21 3 -21 5 0 6 -22 3 -49 -5 -42 -3 -50 14 -60 25 -13 214
-12 231 1 6 6 12 24 12 40 0 19 4 27 12 22 7 -5 8 -3 2 7 -5 8 -7 22 -6 32 2
9 -1 17 -6 17 -6 0 -13 7 -16 16 -3 8 -2 12 4 9 23 -14 8 14 -15 29 -14 9 -23
21 -20 26 4 6 -1 7 -11 3 -10 -4 -15 -2 -11 3 3 5 -15 9 -42 9 -35 0 -58 -7
-89 -28z m123 -7 c32 -12 55 -64 55 -122 l0 -43 -111 0 -111 0 6 50 c11 96 80
146 161 115z"/>
<path d="M4171 1524 c0 -11 3 -14 6 -6 3 7 2 16 -1 19 -3 4 -6 -2 -5 -13z"/>
<path d="M4465 1745 c-85 -30 -125 -117 -125 -275 0 -211 63 -290 232 -290 31
0 79 5 106 11 41 8 51 15 54 34 9 44 -4 49 -104 46 -51 -1 -105 2 -120 8 -35
13 -68 66 -68 108 0 21 -6 36 -18 42 -14 7 -18 6 -18 -9 0 -10 3 -17 7 -14 6
3 8 -6 11 -76 1 -16 5 -30 8 -30 4 0 7 -6 8 -12 0 -7 3 -23 6 -35 2 -13 1 -23
-5 -23 -5 0 -9 7 -9 16 0 8 -4 12 -10 9 -5 -3 -10 -1 -10 5 0 6 -7 18 -15 27
-14 14 -14 18 1 42 17 25 17 26 -2 9 -18 -16 -19 -15 -23 20 -9 76 -3 208 12
249 9 28 11 41 3 37 -6 -3 2 6 17 20 15 14 24 26 20 26 -4 0 6 9 22 19 52 33
215 33 215 -1 0 -7 -5 -7 -14 1 -10 8 -16 9 -21 1 -6 -10 -5 -11 15 -14 6 0 9
-5 8 -11 -3 -11 -17 -9 -35 7 -7 6 -10 15 -7 20 4 6 -4 5 -16 -2 -18 -10 -21
-10 -15 2 6 10 5 11 -5 1 -9 -9 -17 -9 -25 -3 -8 7 -21 7 -36 1 -13 -5 -17
-10 -9 -11 24 -1 -10 -20 -37 -20 -12 0 -24 -4 -27 -9 -4 -5 4 -7 16 -4 20 4
18 0 -12 -27 -19 -18 -29 -29 -21 -25 11 7 13 4 7 -11 -18 -42 -18 -91 -1
-108 9 -9 21 -14 26 -11 5 4 9 1 9 -5 0 -6 4 -9 8 -6 4 2 48 6 97 7 72 2 93 6
109 21 18 16 19 20 6 28 -12 8 -12 10 -1 10 11 0 11 3 0 17 -8 9 -9 14 -2 10
12 -8 30 30 19 40 -3 4 -6 -2 -7 -13 0 -16 -2 -15 -10 4 -5 13 -6 29 -2 34 3
6 1 8 -4 5 -6 -4 -14 1 -17 10 -8 19 8 40 18 24 4 -6 2 -11 -5 -11 -7 0 -9 -3
-6 -6 4 -4 13 -2 20 5 11 9 17 7 28 -6 12 -14 12 -16 0 -8 -11 6 -12 5 -5 -6
5 -8 10 -23 11 -34 1 -11 5 -35 9 -52 3 -18 3 -49 0 -69 l-7 -35 -137 1 c-169
2 -164 2 -157 -10 4 -6 68 -10 160 -10 175 0 165 -6 165 98 0 87 -14 134 -51
177 -47 54 -147 71 -234 40z m220 -56 c11 -17 -1 -21 -15 -4 -8 9 -8 15 -2 15
6 0 14 -5 17 -11z m-81 -20 c30 -14 50 -59 50 -117 l1 -43 -110 0 -110 -1 3
34 c10 110 82 165 166 127z m-133 -386 c10 -11 10 -14 2 -9 -7 4 -13 4 -13 1
0 -23 33 -31 133 -30 113 0 138 -7 90 -26 -34 -13 -173 -19 -173 -6 0 4 -8 7
-17 6 -33 -3 -41 1 -38 19 1 9 -1 24 -6 33 -5 9 -5 19 -2 23 9 8 9 8 24 -11z"/>
<path d="M5309 1749 c-20 -6 -49 -24 -65 -40 -25 -26 -29 -39 -32 -103 -4 -70
-3 -75 27 -108 24 -28 47 -40 111 -58 101 -29 130 -50 130 -95 0 -25 -7 -39
-27 -55 -26 -21 -35 -22 -135 -17 l-108 6 0 -35 c0 -47 28 -57 160 -58 88 -1
110 2 139 19 53 31 73 77 69 158 -5 90 -25 110 -155 152 -79 25 -100 36 -111
57 -17 35 -1 75 35 89 17 7 64 9 121 5 l93 -6 -3 33 c-2 24 -10 35 -31 45 -37
18 -171 24 -218 11z m164 -22 c75 -19 62 -32 -35 -33 -53 -1 -93 -6 -102 -13
-9 -7 -25 -10 -38 -6 -13 3 -18 3 -13 -2 9 -7 12 -28 5 -35 -12 -12 -3 -67 14
-87 12 -13 15 -21 9 -17 -7 4 -13 2 -13 -5 0 -7 8 -9 21 -6 17 5 18 3 7 -11
-9 -11 -9 -14 -1 -8 12 6 74 -6 118 -24 11 -5 30 -12 43 -15 12 -4 20 -10 17
-15 -3 -4 2 -11 11 -14 10 -4 13 -2 8 7 -5 8 -4 9 4 2 6 -5 14 -25 17 -44 3
-19 8 -38 11 -42 2 -4 0 -10 -5 -14 -6 -3 -8 -21 -6 -40 4 -29 1 -37 -23 -49
-15 -9 -20 -15 -12 -16 10 0 11 -3 2 -12 -13 -13 -41 5 -38 25 3 20 17 38 25
32 5 -2 6 8 3 23 l-5 27 24 -20 23 -20 -22 29 c-22 29 -30 62 -12 51 6 -3 7 1
4 10 -4 9 -9 14 -12 11 -2 -3 -18 6 -34 19 -16 14 -36 25 -45 25 -10 0 -13 6
-9 16 5 13 4 14 -7 6 -14 -12 -60 -5 -52 8 2 4 -6 6 -19 5 -32 -4 -69 22 -61
42 4 13 3 14 -10 3 -13 -11 -14 -10 -9 5 5 12 4 16 -3 12 -6 -4 -13 3 -17 16
-9 32 -7 89 2 83 4 -3 8 7 8 22 -1 18 4 26 13 24 8 -2 11 3 8 12 -4 9 -3 15 1
14 4 -1 17 3 30 10 22 13 28 7 22 -23 -1 -5 2 -6 7 -2 4 5 8 14 8 20 0 7 8 11
18 11 9 -1 17 2 17 7 0 13 46 11 103 -4z m-12 -472 c5 4 6 -1 3 -9 -3 -9 -1
-16 5 -16 6 0 11 -5 11 -10 0 -7 -8 -6 -22 1 -20 10 -21 10 -11 -2 9 -12 1
-14 -49 -17 -43 -2 -58 0 -53 9 5 8 1 9 -13 5 -31 -10 -92 4 -92 20 0 8 7 14
16 14 9 0 12 -5 8 -12 -6 -10 -5 -10 7 -1 8 7 44 11 88 10 58 -2 75 1 79 13 4
11 7 11 10 2 2 -6 8 -10 13 -7z"/>
<path d="M5285 1700 c-3 -6 1 -7 9 -4 18 7 21 14 7 14 -6 0 -13 -4 -16 -10z"/>
<path d="M5266 1652 c-3 -5 1 -9 9 -9 8 0 12 4 9 9 -3 4 -7 8 -9 8 -2 0 -6 -4
-9 -8z"/>
<path d="M5460 1432 c19 -16 37 -28 40 -25 5 5 -23 28 -55 45 -11 6 -4 -3 15
-20z"/>
<path d="M3086 1668 c22 -140 54 -278 87 -378 l32 -95 50 -3 51 -3 48 186 c37
140 46 189 38 197 -9 9 -12 7 -12 -9 0 -12 -4 -24 -10 -28 -5 -3 -6 -13 -3
-22 5 -12 3 -14 -7 -8 -10 6 -12 3 -8 -13 4 -12 3 -20 -2 -17 -4 3 -8 -11 -8
-31 0 -20 -5 -40 -12 -44 -6 -4 -10 -16 -9 -26 2 -11 -3 -30 -11 -44 -7 -14
-13 -26 -12 -27 1 -2 2 -4 1 -5 0 -2 -2 -16 -5 -33 -2 -16 -4 -36 -5 -43 -2
-8 -8 -7 -21 5 -18 16 -18 16 -12 -1 7 -18 6 -18 -19 -1 -17 11 -24 22 -20 32
4 11 2 14 -5 9 -8 -4 -10 -2 -6 7 3 8 1 18 -5 22 -6 3 -11 17 -11 31 0 13 -4
24 -10 24 -5 0 -7 7 -4 15 4 8 1 21 -4 28 -25 29 -65 267 -52 304 9 26 9 27
-5 9 -12 -16 -15 -17 -15 -4 0 21 24 29 43 15 14 -11 31 -101 44 -241 4 -33 8
-44 14 -35 6 10 9 3 11 -21 3 -59 4 -64 16 -87 7 -13 9 -23 5 -23 -4 0 -1 -4
6 -9 19 -12 54 6 45 21 -4 7 -3 8 5 4 8 -5 11 2 9 22 -1 17 3 36 9 44 5 7 10
28 10 46 0 19 5 37 11 41 7 4 15 29 18 57 3 27 10 51 15 52 5 2 9 15 9 28 0
17 4 23 13 18 9 -5 9 -4 0 6 -9 10 -9 16 2 26 18 18 33 18 51 -1 12 -12 12
-15 2 -15 -9 0 -10 -3 -2 -8 9 -6 27 -77 29 -119 0 -6 4 -15 8 -19 4 -4 7 -18
7 -31 0 -14 4 -21 10 -18 6 4 11 -8 12 -27 2 -50 17 -98 39 -125 13 -15 39 -6
39 13 0 8 4 14 9 14 5 0 7 9 4 20 -3 11 -1 20 5 20 6 0 8 10 4 22 -4 15 -2 19
7 13 10 -5 11 -2 6 15 -10 31 4 98 16 79 5 -9 6 4 2 35 -5 40 -4 48 8 44 11
-4 14 9 13 69 -1 40 1 71 4 68 3 -2 11 0 18 6 11 9 15 7 20 -6 10 -25 -4 -136
-25 -202 -11 -33 -17 -71 -14 -85 3 -14 0 -29 -6 -32 -6 -4 -11 -17 -11 -29 0
-18 -2 -19 -10 -7 -7 11 -8 5 -4 -20 5 -28 3 -32 -6 -20 -10 13 -11 12 -6 -3
3 -10 -2 -35 -10 -57 -14 -35 -20 -40 -49 -40 -27 0 -34 5 -39 25 -4 14 -4 31
0 37 4 7 3 8 -4 4 -8 -5 -12 2 -12 21 0 16 -11 64 -25 107 -14 43 -26 91 -27
107 -1 16 -5 29 -9 29 -4 0 -10 8 -13 18 -3 9 -16 23 -28 31 -22 13 -22 13 -7
-5 9 -10 38 -102 64 -204 26 -101 49 -188 51 -192 3 -5 27 -8 54 -8 l49 0 31
98 c40 127 80 319 83 396 l2 61 -45 3 -45 3 -17 -123 c-10 -68 -27 -170 -40
-227 l-22 -104 -51 199 -50 199 -47 3 c-47 3 -47 3 -57 -35 -25 -98 -80 -311
-86 -338 -7 -28 -8 -26 -21 30 -7 33 -23 116 -34 185 -38 231 -27 205 -86 208
l-51 3 13 -83z"/>
<path d="M5205 1742 c3 -3 -1 -12 -7 -21 -8 -10 -4 -9 10 3 26 23 26 23 7 23
-8 0 -13 -3 -10 -5z"/>
<path d="M5576 1732 c-3 -5 1 -9 9 -9 8 0 12 4 9 9 -3 4 -7 8 -9 8 -2 0 -6 -4
-9 -8z"/>
<path d="M3490 1701 c0 -6 4 -13 10 -16 6 -3 7 1 4 9 -7 18 -14 21 -14 7z"/>
<path d="M3480 1676 c0 -2 8 -10 18 -17 15 -13 16 -12 3 4 -13 16 -21 21 -21
13z"/>
<path d="M3772 1590 c0 -14 2 -19 5 -12 2 6 2 18 0 25 -3 6 -5 1 -5 -13z"/>
<path d="M3751 1544 c0 -11 3 -14 6 -6 3 7 2 16 -1 19 -3 4 -6 -2 -5 -13z"/>
<path d="M3261 1514 c0 -11 3 -14 6 -6 3 7 2 16 -1 19 -3 4 -6 -2 -5 -13z"/>
<path d="M3620 1469 c0 -5 5 -7 10 -4 6 3 10 8 10 11 0 2 -4 4 -10 4 -5 0 -10
-5 -10 -11z"/>
<path d="M2655 1450 c10 -11 20 -20 23 -20 3 0 -3 9 -13 20 -10 11 -20 20 -23
20 -3 0 3 -9 13 -20z"/>
<path d="M3015 1460 c-3 -6 1 -7 9 -4 18 7 21 14 7 14 -6 0 -13 -4 -16 -10z"/>
<path d="M5245 1421 c-3 -5 0 -13 6 -17 7 -4 9 -3 5 4 -3 5 0 13 6 15 9 4 10
6 1 6 -6 1 -14 -3 -18 -8z"/>
<path d="M4210 1310 c-9 -6 -10 -10 -3 -10 6 0 15 5 18 10 8 12 4 12 -15 0z"/>
<path d="M4765 1300 c-3 -5 -1 -10 4 -10 6 0 11 5 11 10 0 6 -2 10 -4 10 -3 0
-8 -4 -11 -10z"/>
<path d="M5816 1293 c-6 -14 -5 -15 5 -6 7 7 10 15 7 18 -3 3 -9 -2 -12 -12z"/>
<path d="M5685 1270 c-35 -39 6 -99 59 -86 15 4 32 17 38 31 26 57 -55 102
-97 55z m73 -2 c26 -26 7 -78 -28 -78 -9 0 -25 9 -35 20 -37 41 24 97 63 58z"/>
<path d="M5711 1233 c1 -21 3 -30 6 -20 2 9 8 17 13 17 5 0 11 -8 14 -17 2
-10 4 -2 3 17 -1 24 -7 36 -19 38 -15 3 -18 -3 -17 -35z m29 17 c0 -5 -4 -10
-10 -10 -5 0 -10 5 -10 10 0 6 5 10 10 10 6 0 10 -4 10 -10z"/>
<path d="M3524 1269 c-3 -6 -2 -15 3 -20 5 -5 9 -1 9 11 0 23 -2 24 -12 9z"/>
<path d="M4326 1267 c3 -10 9 -15 12 -12 3 3 0 11 -7 18 -10 9 -11 8 -5 -6z"/>
<path d="M3026 1253 c-6 -14 -5 -15 5 -6 7 7 10 15 7 18 -3 3 -9 -2 -12 -12z"/>
<path d="M2591 1244 c0 -11 3 -14 6 -6 3 7 2 16 -1 19 -3 4 -6 -2 -5 -13z"/>
<path d="M3646 1213 c-6 -14 -5 -15 5 -6 7 7 10 15 7 18 -3 3 -9 -2 -12 -12z"/>
<path d="M5826 1215 c-9 -26 -7 -32 5 -12 6 10 9 21 6 23 -2 3 -7 -2 -11 -11z"/>
<path d="M2579 1193 c-13 -16 -12 -17 4 -4 16 13 21 21 13 21 -2 0 -10 -8 -17
-17z"/>
<path d="M3025 1199 c-4 -6 -5 -12 -2 -15 2 -3 7 2 10 11 7 17 1 20 -8 4z"/>
<path d="M4913 1175 c0 -7 6 -11 14 -8 7 3 13 6 13 8 0 2 -6 5 -13 8 -8 3 -14
-1 -14 -8z"/>
<path d="M4416 1168 c3 -5 10 -6 15 -3 13 9 11 12 -6 12 -8 0 -12 -4 -9 -9z"/>
<path d="M5175 1170 c3 -5 8 -10 11 -10 2 0 4 5 4 10 0 6 -5 10 -11 10 -5 0
-7 -4 -4 -10z"/>
<path d="M2535 1079 c-4 -6 -4 -13 -1 -16 3 -4 6 -1 6 6 0 7 5 9 12 5 7 -4 8
-3 4 4 -9 15 -13 15 -21 1z"/>
<path d="M2766 984 c-5 -14 -4 -15 9 -4 17 14 19 20 6 20 -5 0 -12 -7 -15 -16z"/>
<path d="M2806 988 c3 -5 10 -6 15 -3 13 9 11 12 -6 12 -8 0 -12 -4 -9 -9z"/>
<path d="M3080 996 c0 -2 7 -7 16 -10 8 -3 12 -2 9 4 -6 10 -25 14 -25 6z"/>
<path d="M4517 983 c3 -7 6 -13 8 -13 1 0 7 6 13 13 8 10 6 13 -7 13 -11 0
-17 -6 -14 -13z"/>
<path d="M4546 972 c-3 -5 1 -9 9 -9 8 0 12 4 9 9 -3 4 -7 8 -9 8 -2 0 -6 -4
-9 -8z"/>
<path d="M1545 961 c-3 -5 -2 -12 3 -15 5 -3 9 1 9 9 0 17 -3 19 -12 6z"/>
<path d="M2665 950 c-27 -30 -13 -65 35 -84 44 -18 50 -30 20 -46 -16 -8 -22
-7 -32 10 -14 22 -38 27 -38 7 0 -46 79 -69 108 -30 24 33 11 66 -35 88 -24
11 -43 23 -43 28 0 16 31 19 49 3 37 -34 57 -12 21 24 -25 25 -62 26 -85 0z"/>
<path d="M2822 881 c-26 -82 -27 -91 -12 -91 10 0 20 9 23 20 4 14 14 20 35
20 22 0 32 -6 37 -20 6 -19 35 -29 35 -12 0 27 -60 167 -73 170 -11 2 -23 -21
-45 -87z m60 4 c4 -19 1 -25 -13 -25 -21 0 -22 4 -13 37 8 28 20 22 26 -12z"/>
<path d="M2945 953 c3 -10 16 -51 28 -90 30 -102 48 -100 81 11 30 98 30 96
12 96 -13 0 -36 -60 -48 -125 -2 -11 -12 12 -23 53 -15 58 -23 72 -38 72 -14
0 -17 -5 -12 -17z"/>
<path d="M3110 880 l0 -90 60 0 c47 0 60 3 60 15 0 11 -12 15 -45 15 -42 0
-45 2 -45 26 0 24 3 26 40 22 33 -3 40 0 40 14 0 14 -8 18 -40 18 -33 0 -40 3
-40 20 0 17 7 20 45 20 33 0 45 4 45 15 0 12 -13 15 -60 15 l-60 0 0 -90z"/>
<path d="M3340 881 c0 -78 2 -91 16 -91 15 0 16 9 10 72 -8 86 2 84 18 -4 8
-44 16 -64 27 -66 13 -2 20 13 32 70 l16 73 -2 -73 c-2 -62 0 -72 15 -72 15 0
17 12 16 90 -1 86 -2 90 -24 90 -17 0 -24 -9 -33 -44 -6 -25 -11 -55 -11 -67
0 -37 -11 -14 -24 48 -9 48 -15 59 -33 61 -22 3 -23 1 -23 -87z"/>
<path d="M3551 951 c-45 -45 -33 -133 21 -159 52 -25 98 19 98 94 0 68 -75
109 -119 65z m83 -42 c19 -56 -21 -113 -60 -85 -22 16 -25 76 -4 101 19 23 53
15 64 -16z"/>
<path d="M3710 880 c0 -77 2 -90 16 -90 14 0 16 9 11 60 -3 33 -4 60 -2 60 2
0 16 -27 31 -60 19 -42 32 -60 45 -60 17 0 19 9 19 90 0 73 -3 90 -15 90 -12
0 -15 -13 -15 -61 l0 -62 -32 62 c-45 88 -58 81 -58 -29z"/>
<path d="M3874 880 l1 -90 58 0 c44 0 57 3 57 15 0 11 -12 15 -45 15 -41 0
-45 2 -45 25 0 23 4 25 40 25 29 0 40 4 40 15 0 11 -11 15 -40 15 -34 0 -40 3
-40 21 0 19 5 21 45 17 38 -3 45 0 45 14 0 15 -9 18 -58 18 l-58 0 0 -90z"/>
<path d="M4041 918 c17 -32 29 -68 29 -90 0 -27 4 -38 15 -38 11 0 15 11 15
38 0 22 12 58 29 90 28 49 28 52 9 52 -14 0 -24 -12 -36 -41 l-16 -42 -18 42
c-12 28 -23 41 -37 41 -18 0 -17 -4 10 -52z"/>
<path d="M4260 860 c0 -67 4 -110 10 -110 6 0 10 43 10 110 0 67 -4 110 -10
110 -6 0 -10 -43 -10 -110z"/>
<path d="M4416 954 c-32 -32 -18 -66 37 -89 40 -16 45 -26 23 -44 -16 -14 -46
-4 -46 15 0 8 -7 14 -15 14 -24 0 -18 -38 9 -55 51 -34 113 15 88 70 -7 15
-24 28 -43 33 -37 9 -49 29 -23 39 10 4 22 0 29 -10 17 -23 46 -23 38 1 -14
41 -68 56 -97 26z"/>
<path d="M4572 881 c-29 -86 -30 -91 -11 -91 12 0 19 7 19 20 0 16 7 20 34 20
26 0 36 -5 41 -20 3 -11 13 -20 21 -20 17 0 17 -3 -20 108 -33 96 -47 93 -84
-17z m51 -19 c-21 -5 -25 2 -17 34 l7 29 13 -30 c10 -25 10 -31 -3 -33z"/>
<path d="M4694 954 c4 -11 17 -52 29 -91 29 -101 47 -99 81 11 30 98 30 96 12
96 -13 0 -46 -87 -46 -121 0 -26 -16 5 -30 59 -11 41 -20 58 -34 60 -15 3 -17
0 -12 -14z"/>
<path d="M4860 880 l0 -90 60 0 c47 0 60 3 60 15 0 11 -12 15 -45 15 -41 0
-45 2 -45 25 0 23 4 25 40 25 30 0 40 4 40 16 0 13 -8 15 -40 12 -36 -3 -40
-1 -40 19 0 21 5 23 45 23 33 0 45 4 45 15 0 12 -13 15 -60 15 l-60 0 0 -90z"/>
<path d="M5057 964 c-12 -12 5 -32 24 -27 18 5 19 0 19 -71 0 -61 3 -76 15
-76 12 0 15 15 15 75 0 73 1 75 25 75 16 0 25 6 25 15 0 12 -13 15 -58 15 -32
0 -61 -3 -65 -6z"/>
<path d="M5210 880 c0 -73 3 -90 15 -90 12 0 15 17 15 90 0 73 -3 90 -15 90
-12 0 -15 -17 -15 -90z"/>
<path d="M5280 880 c0 -73 3 -90 15 -90 12 0 15 15 16 68 1 74 3 73 19 -10 7
-36 17 -58 25 -58 16 0 22 16 31 80 10 75 19 68 16 -11 -3 -58 -1 -69 12 -69
13 0 16 15 16 90 0 88 -1 90 -24 90 -21 0 -25 -7 -36 -62 l-13 -63 -15 63
c-14 54 -18 62 -39 62 -22 0 -23 -2 -23 -90z"/>
<path d="M5470 880 l0 -90 60 0 c47 0 60 3 60 15 0 11 -12 15 -45 15 -41 0
-45 2 -45 25 0 23 4 25 40 25 29 0 40 4 40 15 0 11 -11 15 -40 15 -33 0 -40 3
-40 20 0 17 7 20 45 20 33 0 45 4 45 15 0 12 -13 15 -60 15 l-60 0 0 -90z"/>
<path d="M1620 866 c0 -2 8 -10 18 -17 15 -13 16 -12 3 4 -13 16 -21 21 -21
13z"/>
<path d="M806 827 c3 -10 9 -15 12 -12 3 3 0 11 -7 18 -10 9 -11 8 -5 -6z"/>
<path d="M3281 825 c0 -5 6 -21 13 -33 13 -24 13 -24 13 7 0 18 -4 27 -7 20
-6 -8 -9 -7 -13 2 -3 8 -6 10 -6 4z"/>
<path d="M5036 813 c-6 -14 -5 -15 5 -6 7 7 10 15 7 18 -3 3 -9 -2 -12 -12z"/>
<path d="M4015 810 c-3 -6 1 -7 9 -4 18 7 21 14 7 14 -6 0 -13 -4 -16 -10z"/>
<path d="M3251 797 c2 -1 13 -9 24 -17 19 -14 19 -14 6 3 -7 9 -18 17 -24 17
-6 0 -8 -1 -6 -3z"/>
<path d="M2643 769 c-2 -23 3 -25 10 -4 4 8 3 16 -1 19 -4 3 -9 -4 -9 -15z"/>
<path d="M2769 788 c-5 -18 -6 -38 -1 -34 7 8 12 36 6 36 -2 0 -4 -1 -5 -2z"/>
<path d="M5042 774 c10 -10 20 -16 22 -13 3 3 -5 11 -17 18 -21 13 -21 12 -5
-5z"/>
<path d="M3246 772 c-3 -5 1 -9 9 -9 8 0 12 4 9 9 -3 4 -7 8 -9 8 -2 0 -6 -4
-9 -8z"/>
<path d="M3667 769 c7 -7 15 -10 18 -7 3 3 -2 9 -12 12 -14 6 -15 5 -6 -5z"/>
<path d="M708 593 c17 -2 47 -2 65 0 17 2 3 4 -33 4 -36 0 -50 -2 -32 -4z"/>
<path d="M1318 593 c7 -3 16 -2 19 1 4 3 -2 6 -13 5 -11 0 -14 -3 -6 -6z"/>
<path d="M1438 593 c45 -2 119 -2 165 0 45 1 8 3 -83 3 -91 0 -128 -2 -82 -3z"/>
<path d="M2358 593 c18 -2 45 -2 60 0 15 2 0 4 -33 4 -33 0 -45 -2 -27 -4z"/>
</g>
</svg>
