<?xml version="1.0" encoding="UTF-8"?>
<svg id="Layer_1" data-name="Layer 1" xmlns="http://www.w3.org/2000/svg" xmlns:xlink="http://www.w3.org/1999/xlink" viewBox="0 0 656.22 450.78">
  <defs>
    <style>
      .cls-1 {
        fill: none;
      }

      .cls-2 {
        fill: #231f20;
      }

      .cls-3 {
        fill: #f4ea17;
      }

      .cls-4 {
        clip-path: url(#clippath);
      }
    </style>
    <clipPath id="clippath">
      <rect class="cls-1" x="105.26" y="130.03" width="458.26" height="199.29"/>
    </clipPath>
  </defs>
  <rect class="cls-3" width="656.22" height="450.78"/>
  <polygon class="cls-2" points="105.26 130.03 105.26 329.32 304.55 329.32 304.55 311.08 300.95 311.08 300.95 325.71 108.87 325.71 108.87 133.64 300.95 133.64 300.95 155.3 304.55 155.3 304.55 130.03 105.26 130.03"/>
  <g class="cls-4">
    <path class="cls-2" d="M183.51,164.23v136.1h-36.33v-72.97c0-10.53-.27-16.87-.81-19-.54-2.13-2.02-3.74-4.45-4.83-2.43-1.09-7.84-1.64-16.23-1.64h-3.6v-15.87c17.57-3.53,30.9-10.8,40.02-21.79h21.4Z"/>
    <path class="cls-2" d="M286.27,210.29v45.4c0,10.32-.6,17.82-1.8,22.53-1.2,4.7-3.69,9.11-7.46,13.2-3.78,4.09-8.33,7.03-13.67,8.82-5.34,1.79-11.3,2.69-17.9,2.69-8.69,0-15.92-.94-21.67-2.82-5.76-1.87-10.34-4.8-13.76-8.78-3.42-3.98-5.85-8.17-7.28-12.57-1.44-4.4-2.16-11.39-2.16-20.98v-47.5c0-12.5,1.15-21.86,3.46-28.08,2.31-6.22,6.89-11.21,13.76-14.96,6.86-3.76,15.18-5.63,24.95-5.63,7.97,0,15.11,1.3,21.4,3.91,6.3,2.61,11,5.79,14.12,9.54,3.12,3.76,5.23,7.99,6.34,12.69,1.11,4.71,1.66,12.22,1.66,22.53M249.94,198.86c0-7.23-.37-11.76-1.12-13.58-.75-1.82-2.5-2.73-5.26-2.73s-4.48.97-5.35,2.9c-.87,1.93-1.3,6.4-1.3,13.41v66.41c0,7.91.4,12.67,1.21,14.29.81,1.63,2.56,2.44,5.26,2.44s4.46-.95,5.31-2.86c.84-1.9,1.26-6.19,1.26-12.86v-67.42Z"/>
    <path class="cls-2" d="M539.28,184.9c.13-.48.23-.91.3-1.29.06-.38.1-.74.1-1.08,0-.9-.61-1.35-1.84-1.35-.54,0-1.06.09-1.57.28-.51.19-.99.43-1.44.74-.46.31-.86.65-1.23,1.03-.36.38-.66.78-.9,1.2l-.04-1.86c0-.14-.01-.28-.04-.42-.03-.14-.06-.27-.12-.38-.08-.14-.21-.25-.38-.34-.17-.09-.48-.13-.9-.13h-3.86l-3.45,18.13c-.03.14-.06.33-.1.57-.04.24-.08.49-.12.76-.04.27-.08.53-.12.78-.04.25-.06.44-.06.55,0,.28.08.54.24.78.16.24.55.36,1.16.36h4.9l2.73-14.29c.27-.25.59-.47.96-.65.38-.19.76-.33,1.15-.44.39-.12.77-.2,1.16-.25.39-.06.73-.09,1.02-.09s.58.01.86.04c.28.03.58.07.9.12l.68-2.79ZM505.53,202.57c1.38-.82,2.54-1.9,3.47-3.23.94-1.34,1.65-2.87,2.13-4.61.48-1.73.72-3.53.72-5.39,0-1.38-.2-2.61-.6-3.68-.4-1.07-.96-1.97-1.67-2.68-.71-.72-1.56-1.26-2.55-1.63-.99-.37-2.08-.55-3.25-.55-1.79,0-3.38.41-4.76,1.22-1.38.82-2.54,1.9-3.47,3.23-.94,1.34-1.65,2.87-2.13,4.61-.48,1.74-.72,3.53-.72,5.39,0,1.41.2,2.64.6,3.7.4,1.06.96,1.94,1.67,2.66.71.72,1.56,1.26,2.55,1.63.99.36,2.08.55,3.25.55,1.79,0,3.38-.41,4.76-1.23M499.56,197.54c-.27-.65-.4-1.35-.4-2.11,0-1.13.1-2.25.28-3.36.19-1.11.46-2.11.82-3,.36-.89.8-1.61,1.32-2.16.53-.55,1.12-.83,1.79-.83.8,0,1.34.33,1.6.97.27.65.4,1.35.4,2.12,0,1.13-.1,2.25-.28,3.36-.19,1.12-.46,2.12-.82,3-.36.89-.8,1.61-1.32,2.16-.52.55-1.12.82-1.79.82-.81,0-1.34-.32-1.61-.97M468.97,198.94c-.21,1.24-.46,2.27-.74,3.08-.28.82-.62,1.47-1.03,1.97-.4.49-.86.84-1.37,1.04-.51.19-1.07.3-1.69.3h-.48c-.16,0-.32-.02-.48-.04l-.36,1.35c-.19.76-.28,1.38-.28,1.86s.13.87.4,1.16c.27.29.59.52.97.68.38.16.76.26,1.17.29.4.05.73.07,1,.07.91,0,1.83-.17,2.77-.51.94-.34,1.82-.89,2.63-1.65.82-.76,1.56-1.77,2.21-3.02.65-1.26,1.15-2.81,1.47-4.67l2.53-14.16h4.6l.48-2.5c.06-.34.11-.68.17-1.03.05-.35.08-.6.08-.74,0-.74-.42-1.1-1.24-1.1h-3.12l.2-1.02c.13-.76.44-1.35.94-1.77.49-.42,1.1-.63,1.82-.63s1.36.07,1.84.21c.48.14.91.28,1.28.42l.32-1.31c.08-.34.17-.73.26-1.16.09-.44.14-.8.14-1.08,0-.51-.13-.93-.38-1.29-.26-.36-.85-.66-1.79-.91-.32-.08-.72-.16-1.2-.23-.48-.07-1.05-.11-1.69-.11-1.1,0-2.09.19-2.99.55-.9.37-1.69.88-2.37,1.54-.68.66-1.25,1.45-1.71,2.36-.45.92-.79,1.91-1,2.98l-.28,1.44h-2.4l-.48,2.49c-.05.34-.11.68-.16,1.03-.05.36-.08.6-.08.74,0,.73.41,1.1,1.24,1.1h.88l-2.09,12.26ZM426.16,182.24c-.05-.37-.18-.61-.36-.74-.19-.13-.53-.19-1.04-.19h-3.68l-3.41,18.13c-.02.14-.06.33-.1.57-.04.24-.08.49-.12.76-.04.27-.08.53-.12.78-.04.25-.06.44-.06.55,0,.28.08.54.24.78.16.24.55.36,1.17.36h4.89l2.93-15.39c.29-.28.69-.59,1.17-.91.48-.32,1.05-.49,1.69-.49.37,0,.69.12.95.36.26.24.38.59.38,1.04,0,.37-.05.8-.14,1.29-.1.49-.17.89-.22,1.2l-1.69,9.05c-.06.2-.1.43-.14.7-.04.27-.08.53-.12.78-.04.25-.08.49-.1.7-.03.21-.04.38-.04.49,0,.31.09.58.26.82.17.24.6.36,1.27.36h4.72l2.33-12.18c.13-.76.25-1.53.36-2.3.11-.78.17-1.62.17-2.52,0-1.77-.48-3.13-1.43-4.06-.95-.93-2.16-1.4-3.63-1.4-1.29,0-2.44.29-3.47.89-1.03.59-1.86,1.28-2.47,2.07l-.17-1.52ZM399.01,185.66c.16.03.31.07.44.13l-2.25,10.91c-.29.34-.61.64-.94.89-.33.26-.84.38-1.51.38-.51,0-.88-.24-1.12-.72-.24-.48-.36-1.16-.36-2.03s.09-1.91.28-3.03c.19-1.11.48-2.15.88-3.12.4-.97.93-1.79,1.59-2.45.66-.66,1.46-.99,2.43-.99.21,0,.4,0,.56.04M398.33,201.98c.11.42.25.74.44.95.19.21.53.32,1.05.32h3.37c0-.51.02-1.12.06-1.84.04-.72.1-1.48.18-2.3.08-.82.17-1.64.28-2.48.11-.83.24-1.6.4-2.3l1.69-7.78c.08-.34.15-.73.22-1.16.07-.44.1-.73.1-.87,0-.73-.16-1.25-.48-1.56-.32-.31-.89-.66-1.69-1.06-.54-.25-1.29-.5-2.25-.74-.96-.24-2.05-.36-3.25-.36-1.9,0-3.57.41-5.02,1.22-1.45.82-2.67,1.9-3.65,3.26-.99,1.35-1.73,2.92-2.23,4.69-.49,1.78-.74,3.64-.74,5.58,0,2.51.45,4.49,1.34,5.96.9,1.47,2.28,2.2,4.16,2.2,1.31,0,2.38-.27,3.21-.81.83-.54,1.64-1.28,2.45-2.24l.36,1.31ZM362.23,208.55c1.69-1.37,3.37-3.26,5.06-5.69.75-1.04,1.55-2.28,2.39-3.72.84-1.44,1.65-2.93,2.43-4.48.77-1.55,1.49-3.09,2.15-4.61.66-1.52,1.16-2.9,1.51-4.14.19-.62.38-1.26.58-1.92.2-.66.3-1.21.3-1.63,0-.31-.08-.56-.24-.76-.16-.2-.53-.29-1.12-.29h-4.54c-.72,2.48-1.51,4.94-2.37,7.4-.86,2.45-1.79,4.75-2.81,6.89-.13-1.27-.25-2.7-.36-4.31-.11-1.61-.16-3.41-.16-5.41v-2.66c0-.81-.07-1.34-.22-1.56-.15-.23-.51-.34-1.1-.34h-5.06c-.06.68-.09,1.25-.1,1.73-.02.48-.03.89-.04,1.22-.01.34-.02.63-.02.87v.7c0,1.66.09,3.26.28,4.79.19,1.54.43,2.97.72,4.29.3,1.32.62,2.53.96,3.61.35,1.08.68,1.99,1,2.73-.86,1.3-1.75,2.28-2.67,2.94-.92.66-1.99.99-3.19.99-.22,0-.44,0-.66-.02-.23-.01-.41-.04-.54-.06l-.36,1.44c-.16.6-.24,1.14-.24,1.65,0,.84.3,1.46.9,1.84.6.38,1.29.57,2.07.57,1.96,0,3.78-.68,5.46-2.05M338.62,185.66c.16.03.31.07.44.13l-2.25,10.91c-.29.34-.61.64-.94.89-.34.26-.84.38-1.51.38-.51,0-.88-.24-1.12-.72-.24-.48-.36-1.16-.36-2.03s.09-1.91.28-3.03c.19-1.11.48-2.15.88-3.12.4-.97.93-1.79,1.59-2.45.66-.66,1.46-.99,2.43-.99.22,0,.4,0,.56.04M337.93,201.98c.11.42.26.74.44.95.19.21.54.32,1.04.32h3.37c0-.51.02-1.12.06-1.84.04-.72.1-1.48.18-2.3.08-.82.18-1.64.28-2.48.11-.83.24-1.6.4-2.3l1.69-7.78c.08-.34.15-.73.22-1.16.07-.44.1-.73.1-.87,0-.73-.16-1.25-.48-1.56-.32-.31-.88-.66-1.69-1.06-.53-.25-1.28-.5-2.25-.74-.96-.24-2.05-.36-3.25-.36-1.9,0-3.57.41-5.02,1.22-1.45.82-2.66,1.9-3.65,3.26-.99,1.35-1.73,2.92-2.23,4.69-.5,1.78-.75,3.64-.75,5.58,0,2.51.45,4.49,1.35,5.96.9,1.47,2.28,2.2,4.16,2.2,1.31,0,2.38-.27,3.21-.81.83-.54,1.65-1.28,2.45-2.24l.36,1.31ZM305.73,179.4c.16-.9.32-1.75.48-2.57.16-.81.24-1.36.24-1.64,0-.4-.1-.7-.3-.91-.2-.21-.55-.32-1.06-.32h-5.06l-4.42,23.84c-.16.9-.31,1.76-.46,2.58-.15.82-.22,1.37-.22,1.65,0,.4.1.7.3.91.2.21.56.32,1.06.32h5.06l2.41-13.21c.43.85.81,1.81,1.16,2.9.35,1.09.66,2.17.94,3.24.28,1.07.51,2.07.7,3.01.19.93.33,1.66.44,2.2.08.48.24.91.48,1.29.24.38.7.57,1.37.57h5.58c-.19-1.18-.44-2.47-.76-3.85-.32-1.38-.7-2.77-1.14-4.17-.44-1.4-.94-2.74-1.49-4.02-.54-1.29-1.14-2.41-1.79-3.37,1.61-1.49,3.15-3.1,4.62-4.81,1.47-1.71,2.66-3.33,3.57-4.85.32-.51.58-.94.78-1.29.2-.35.36-.65.48-.89.12-.24.21-.44.26-.61.05-.17.08-.32.08-.46,0-.65-.38-.97-1.12-.97h-5.34c-.43.76-.94,1.62-1.52,2.57-.59.96-1.23,1.92-1.91,2.89-.68.97-1.4,1.92-2.15,2.85-.75.93-1.5,1.73-2.25,2.41l.97-5.28Z"/>
    <path class="cls-2" d="M515.1,265.64c0,.72.11,1.29.34,1.74.22.44.7.84,1.44,1.2.56.23,1.37.46,2.42.67,1.04.2,2.18.4,3.43.58,1.24.18,2.49.31,3.76.4,1.27.08,2.44.13,3.51.13,2.43,0,4.66-.23,6.69-.71,2.03-.47,3.78-1.31,5.25-2.49,1.47-1.19,2.59-2.72,3.39-4.59.79-1.87,1.19-4.17,1.19-6.91,0-2.49-.34-4.53-1.02-6.1-.68-1.57-1.64-2.83-2.88-3.79-1.24-.95-2.71-1.72-4.4-2.32-1.69-.59-3.53-1.16-5.5-1.69-1.7-.42-3.16-.84-4.41-1.25-1.24-.42-2.24-.86-3-1.33-.76-.48-1.33-1.07-1.7-1.79-.37-.71-.55-1.64-.55-2.76,0-2.02.66-3.51,1.99-4.46,1.32-.95,3.68-1.42,7.07-1.42,1.58,0,3.34.09,5.29.27,1.95.17,4.25.41,6.9.71v-4.01c0-.77-.13-1.35-.38-1.74-.25-.39-.72-.73-1.4-1.03-.62-.24-1.41-.46-2.37-.67-.96-.21-2-.4-3.13-.58-1.13-.18-2.28-.31-3.47-.4-1.19-.09-2.26-.13-3.21-.13-5.03,0-8.9,1.07-11.64,3.21-2.74,2.14-4.11,5.7-4.11,10.69,0,2.44.32,4.41.97,5.93.65,1.52,1.59,2.76,2.84,3.74,1.24.98,2.74,1.77,4.49,2.36,1.75.6,3.64,1.16,5.67,1.69,1.86.48,3.4.94,4.61,1.39,1.21.45,2.17.94,2.88,1.47.71.53,1.19,1.16,1.44,1.87.25.71.38,1.57.38,2.58,0,2.32-.68,4-2.03,5.03-1.35,1.04-3.95,1.56-7.79,1.56-2.2,0-4.44-.11-6.73-.31-2.29-.21-4.36-.43-6.22-.67v3.92ZM507.99,264.75c0-1.42-.82-2.13-2.46-2.13-.57,0-1.18.01-1.86.04-.68.03-1.52.05-2.54.05-1.58,0-2.63-.46-3.13-1.38-.51-.92-.76-2.21-.76-3.88v-27.8h10.75v-5.26c0-.71-.2-1.25-.59-1.6-.4-.36-.9-.53-1.52-.53h-8.63v-10.16c0-1.43-.71-2.14-2.12-2.14h-6.18l-.42,12.3h-5.42v5.25c0,1.43.71,2.14,2.12,2.14h3.13v28.24c0,4.28.95,7.4,2.84,9.36,1.89,1.96,4.95,2.94,9.18,2.94,1.3,0,2.55-.09,3.77-.27,1.21-.18,2.5-.45,3.85-.8v-4.37ZM449.5,242.65c.06-2.2.24-4.21.55-6.02.31-1.82.85-3.34,1.61-4.59.76-1.25,1.79-2.21,3.09-2.9,1.3-.68,2.93-1.02,4.91-1.02,3.39,0,5.64,1.01,6.77,3.03,1.13,2.02,1.69,4.99,1.69,8.91v1.25c0,.3-.03.74-.09,1.34h-18.54ZM475.15,249.24c.34-.83.59-2.08.76-3.74.17-1.66.25-3.42.25-5.25,0-2.61-.24-5.08-.72-7.4-.48-2.31-1.33-4.35-2.54-6.1-1.21-1.76-2.91-3.14-5.08-4.15-2.17-1.01-4.98-1.51-8.42-1.51-3.05,0-5.72.44-8,1.34-2.28.89-4.2,2.35-5.75,4.36-1.55,2.02-2.71,4.61-3.47,7.75-.76,3.15-1.14,6.95-1.14,11.41s.38,8.23,1.14,11.36c.76,3.11,1.95,5.64,3.56,7.57,1.61,1.93,3.65,3.33,6.13,4.19,2.48.86,5.39,1.29,8.72,1.29s5.95-.22,8.38-.66c2.43-.44,4.35-.99,5.76-1.65v-3.83c0-1.36-.68-2.05-2.03-2.05-.68,0-1.96.12-3.85.36-1.89.24-3.97.36-6.23.36-2.59,0-4.71-.24-6.35-.72-1.64-.48-2.95-1.26-3.94-2.36-.99-1.1-1.68-2.51-2.07-4.23-.4-1.72-.65-3.83-.76-6.33h25.65ZM405.82,242.65c.06-2.2.24-4.21.55-6.02.31-1.82.85-3.34,1.61-4.59.76-1.25,1.79-2.21,3.09-2.9,1.3-.68,2.93-1.02,4.91-1.02,3.39,0,5.64,1.01,6.77,3.03,1.13,2.02,1.69,4.99,1.69,8.91v1.25c0,.3-.03.74-.08,1.34h-18.54ZM431.47,249.24c.34-.83.59-2.08.76-3.74.17-1.66.26-3.42.26-5.25,0-2.61-.24-5.08-.72-7.4-.48-2.31-1.33-4.35-2.53-6.1-1.21-1.76-2.91-3.14-5.08-4.15-2.17-1.01-4.98-1.51-8.42-1.51-3.05,0-5.71.44-8,1.34-2.29.89-4.2,2.35-5.76,4.36-1.55,2.02-2.71,4.61-3.47,7.75-.76,3.15-1.14,6.95-1.14,11.41s.38,8.23,1.14,11.36c.76,3.11,1.95,5.64,3.55,7.57,1.61,1.93,3.65,3.33,6.14,4.19,2.48.86,5.39,1.29,8.72,1.29s5.95-.22,8.38-.66c2.43-.44,4.35-.99,5.76-1.65v-3.83c0-1.36-.68-2.05-2.03-2.05-.68,0-1.96.12-3.85.36-1.89.24-3.97.36-6.23.36-2.59,0-4.71-.24-6.35-.72-1.64-.48-2.95-1.26-3.94-2.36-.99-1.1-1.68-2.51-2.07-4.23-.4-1.72-.65-3.83-.76-6.33h25.65ZM358.33,226.08l-8.63,33.5c-.73-2.67-1.44-5.53-2.12-8.59-.68-3.06-1.3-6.15-1.86-9.26-.57-3.12-1.03-6.17-1.4-9.14-.37-2.97-.69-5.7-.97-8.2-.12-1.43-.82-2.14-2.12-2.14h-6.94c.39,3.62.9,7.35,1.52,11.18.62,3.83,1.38,7.68,2.29,11.54.9,3.86,1.89,7.68,2.96,11.45,1.07,3.77,2.26,7.41,3.56,10.92.22.71.49,1.23.8,1.56.31.32.86.49,1.65.49h6.69l8.47-32.43,7.96,30.38c.17.71.41,1.23.72,1.56.31.32.8.49,1.48.49h6.86c2.42-6.54,4.47-13.25,6.14-20.14,1.66-6.89,2.92-13.43,3.77-19.6.11-.95.22-1.87.34-2.76.11-.89.22-1.69.34-2.41.06-.71-.04-1.26-.29-1.65-.25-.39-.78-.58-1.57-.58h-6.43c-.28,2.55-.63,5.44-1.06,8.64-.42,3.21-.93,6.49-1.52,9.84-.59,3.35-1.24,6.65-1.95,9.9-.71,3.23-1.43,6.22-2.16,8.95l-7.96-31.01c-.28-1.01-.64-1.68-1.06-2.01-.42-.32-1.09-.49-1.99-.49h-5.5ZM296.46,265.64c0,.72.11,1.29.34,1.74.23.44.71.84,1.44,1.2.56.23,1.37.46,2.41.67,1.04.2,2.18.4,3.43.58,1.24.18,2.5.31,3.77.4,1.27.08,2.44.13,3.51.13,2.43,0,4.66-.23,6.69-.71,2.03-.47,3.78-1.31,5.25-2.49,1.47-1.19,2.6-2.72,3.39-4.59.79-1.87,1.18-4.17,1.18-6.91,0-2.49-.34-4.53-1.02-6.1-.68-1.57-1.63-2.83-2.88-3.79-1.24-.95-2.71-1.72-4.4-2.32-1.69-.59-3.53-1.16-5.5-1.69-1.69-.42-3.16-.84-4.4-1.25-1.24-.42-2.24-.86-3-1.33-.76-.48-1.33-1.07-1.69-1.79-.37-.71-.55-1.64-.55-2.76,0-2.02.66-3.51,1.99-4.46,1.32-.95,3.68-1.42,7.07-1.42,1.58,0,3.34.09,5.29.27,1.95.17,4.25.41,6.9.71v-4.01c0-.77-.13-1.35-.38-1.74-.26-.39-.72-.73-1.4-1.03-.62-.24-1.41-.46-2.37-.67-.96-.21-2-.4-3.13-.58-1.13-.18-2.29-.31-3.47-.4-1.18-.09-2.26-.13-3.22-.13-5.02,0-8.9,1.07-11.64,3.21-2.74,2.14-4.1,5.7-4.1,10.69,0,2.44.32,4.41.97,5.93.65,1.52,1.59,2.76,2.84,3.74,1.24.98,2.74,1.77,4.48,2.36,1.75.6,3.64,1.16,5.67,1.69,1.86.48,3.4.94,4.61,1.39,1.21.45,2.17.94,2.88,1.47.7.53,1.18,1.16,1.44,1.87.26.71.38,1.57.38,2.58,0,2.32-.68,4-2.03,5.03-1.35,1.04-3.95,1.56-7.79,1.56-2.2,0-4.44-.11-6.73-.31-2.28-.21-4.36-.43-6.22-.67v3.92Z"/>
    <path class="cls-2" d="M300.4,298.3c.13.79.47,2.9,2.8,2.9,1.81,0,2.53-1.12,2.53-2.09,0-1.28-.9-1.55-3.27-2.23-1.28-.39-4.11-1.21-4.11-4.56,0-1.65.92-4.24,4.69-4.24,2.52,0,4.81,1.16,4.92,4.6l-2.6.13c-.11-.78-.31-2.21-2.35-2.21-.77,0-2.18.27-2.18,1.51,0,.98.81,1.4,2.88,1.97,1.96.55,4.62,1.29,4.62,5.03,0,1.84-.99,3.39-2.1,3.98-1.15.64-2.44.68-3.04.68-1.38,0-4.79-.15-5.3-5.2l2.52-.27Z"/>
    <path class="cls-2" d="M320.33,303.51l-1.11-3.43h-5.14l-1.06,3.43h-2.77l5.01-15.17h2.75l5.16,15.17h-2.84ZM318.38,297.51l-1.78-5.64-1.75,5.64h3.52Z"/>
    <polygon class="cls-2" points="322.9 288.34 325.72 288.34 328.93 299.57 328.97 299.57 332.11 288.34 334.86 288.34 330.26 303.5 327.48 303.5 322.9 288.34"/>
    <polygon class="cls-2" points="337.36 288.34 346.9 288.34 346.9 290.9 339.95 290.9 339.95 294.27 346.42 294.27 346.42 296.83 339.95 296.83 339.95 300.94 347.14 300.94 347.14 303.5 337.36 303.5 337.36 288.34"/>
    <polygon class="cls-2" points="356.53 288.34 360.41 288.34 362.73 298.68 362.77 298.68 365.05 288.34 368.95 288.34 368.95 303.5 366.54 303.5 366.54 291.56 366.51 291.56 364.01 303.5 361.51 303.5 358.98 291.56 358.94 291.56 358.94 303.5 356.53 303.5 356.53 288.34"/>
    <path class="cls-2" d="M378.35,288.08c4.21,0,6.24,3.43,6.24,7.86,0,3.96-1.69,7.82-6.2,7.82-4.83,0-6.26-4.26-6.26-7.76,0-4.86,2.23-7.93,6.22-7.93M375.45,299.23c.43.89,1.35,1.9,2.91,1.9,1.36,0,3.54-.87,3.54-5.26,0-1.71-.38-5.17-3.54-5.17-2.95,0-3.56,2.99-3.56,5.22,0,1.71.34,2.69.65,3.31"/>
    <polygon class="cls-2" points="387.87 288.34 390.38 288.34 395.61 298.46 395.65 298.46 395.65 288.34 398.06 288.34 398.06 303.5 395.45 303.5 390.31 293.61 390.28 293.61 390.28 303.5 387.87 303.5 387.87 288.34"/>
    <polygon class="cls-2" points="401.92 288.34 411.46 288.34 411.46 290.9 404.51 290.9 404.51 294.27 410.98 294.27 410.98 296.83 404.51 296.83 404.51 300.94 411.7 300.94 411.7 303.5 401.92 303.5 401.92 288.34"/>
    <polygon class="cls-2" points="418.38 297.13 413.67 288.34 416.71 288.34 419.73 294.34 422.71 288.34 425.69 288.34 420.96 297.15 420.96 303.51 418.38 303.51 418.38 297.13"/>
    <rect class="cls-2" x="434.46" y="287.98" width="1.96" height="18.76"/>
    <path class="cls-2" d="M448.51,298.3c.13.79.47,2.9,2.8,2.9,1.81,0,2.54-1.12,2.54-2.09,0-1.28-.9-1.55-3.27-2.23-1.27-.39-4.11-1.21-4.11-4.56,0-1.65.92-4.24,4.69-4.24,2.51,0,4.82,1.16,4.92,4.6l-2.61.13c-.11-.78-.31-2.21-2.35-2.21-.78,0-2.18.27-2.18,1.51,0,.98.81,1.4,2.88,1.97,1.96.55,4.62,1.29,4.62,5.03,0,1.84-.99,3.39-2.1,3.98-1.15.64-2.44.68-3.03.68-1.38,0-4.8-.15-5.3-5.2l2.51-.27Z"/>
    <path class="cls-2" d="M468.44,303.51l-1.12-3.43h-5.14l-1.06,3.43h-2.77l5.01-15.17h2.75l5.16,15.17h-2.84ZM466.5,297.51l-1.78-5.64-1.74,5.64h3.52Z"/>
    <polygon class="cls-2" points="471.01 288.34 473.83 288.34 477.05 299.57 477.08 299.57 480.23 288.34 482.98 288.34 478.37 303.5 475.59 303.5 471.01 288.34"/>
    <polygon class="cls-2" points="485.47 288.34 495.01 288.34 495.01 290.9 488.06 290.9 488.06 294.27 494.53 294.27 494.53 296.83 488.06 296.83 488.06 300.94 495.25 300.94 495.25 303.5 485.47 303.5 485.47 288.34"/>
    <polygon class="cls-2" points="505.78 290.9 501.97 290.9 501.97 288.34 512.17 288.34 512.17 290.9 508.37 290.9 508.37 303.5 505.78 303.5 505.78 290.9"/>
    <rect class="cls-2" x="514.89" y="288.34" width="2.59" height="15.17"/>
    <polygon class="cls-2" points="521.09 288.34 524.97 288.34 527.29 298.68 527.32 298.68 529.61 288.34 533.51 288.34 533.51 303.5 531.1 303.5 531.1 291.56 531.06 291.56 528.56 303.5 526.07 303.5 523.53 291.56 523.49 291.56 523.49 303.5 521.09 303.5 521.09 288.34"/>
    <polygon class="cls-2" points="537.26 288.34 546.8 288.34 546.8 290.9 539.85 290.9 539.85 294.27 546.32 294.27 546.32 296.83 539.85 296.83 539.85 300.94 547.04 300.94 547.04 303.5 537.26 303.5 537.26 288.34"/>
    <path class="cls-2" d="M563.16,263.73c-.23-.55-.56-1.04-.99-1.47-.42-.43-.92-.76-1.47-.99-.57-.24-1.17-.36-1.79-.36s-1.23.12-1.8.36c-.55.23-1.05.56-1.47.99-.42.43-.76.92-.99,1.47-.24.57-.36,1.17-.36,1.8s.12,1.23.36,1.8c.23.55.56,1.04.99,1.47.43.42.92.76,1.47.99.57.24,1.17.37,1.8.37s1.22-.12,1.79-.37c.55-.23,1.05-.56,1.47-.99.42-.43.76-.92.99-1.47.24-.57.36-1.18.36-1.8s-.12-1.22-.36-1.8M558.9,269.56c-2.22,0-4.04-1.81-4.04-4.04s1.82-4.03,4.04-4.03,4.04,1.81,4.04,4.03-1.81,4.04-4.04,4.04"/>
    <path class="cls-2" d="M560.63,266.41c-.13-.3-.31-.55-.53-.74.5-.29.76-.72.76-1.3,0-.48-.19-.86-.58-1.15-.37-.27-.88-.41-1.51-.41-.41,0-.89.05-1.41.15h-.08v5.28h.87v-2.25h.77c.64,0,1.06.73,1.24,2.17v.08h.89l-.02-.11c-.11-.79-.25-1.36-.4-1.72M559.75,265.02c-.18.14-.47.21-.86.21h-.73v-1.6c.17-.01.38-.02.62-.02.83,0,1.24.26,1.24.8,0,.28-.09.47-.27.61"/>
  </g>
</svg>