<?xml version="1.0" encoding="UTF-8"?>
<svg id="Layer_1" xmlns="http://www.w3.org/2000/svg" version="1.1" xmlns:xlink="http://www.w3.org/1999/xlink" viewBox="0 0 600 353">
  <!-- Generator: Adobe Illustrator 29.0.1, SVG Export Plug-In . SVG Version: 2.1.0 Build 192)  -->
  <defs>
    <style>
      .st0 {
        fill: none;
      }

      .st1 {
        fill: #231f20;
      }

      .st2 {
        fill: #f4ea17;
      }

      .st3 {
        clip-path: url(#clippath);
      }
    </style>
    <clipPath id="clippath">
      <rect class="st0" x="57.7" y="79.1" width="463.5" height="210.6"/>
    </clipPath>
  </defs>
  <rect class="st2" x="-28.1" y="-40.9" width="656.2" height="450.8"/>
  <g class="st3">
    <path class="st1" d="M411,205.8c0,23.2-4.6,43.6-13.8,61.4l-1.8-1.2c-9.2-36.8-15.1-58.9-17.6-66.3-8.2-24.3-18.9-45-32-61.9l21.7-37c11.2,13,21,29.8,29.6,50.3,9.2,21.5,13.8,39.8,13.8,54.7"/>
    <path class="st1" d="M494.8,185.4l-20.4,44.3c-9-9.9-14.6-15.9-17-18-4.5-4.1-11.2-8.7-20.1-13.8l19.2-45.9h1.7c-.6,0,1,.8,4.8,2.4,12.1,5,22.8,15.3,31.9,31"/>
    <polygon class="st1" points="314.3 270.5 314.3 286 517.3 286 517.3 83 314.3 83 314.3 105.9 310.5 105.9 310.5 79.1 521.2 79.1 521.2 289.8 310.5 289.8 310.5 270.5 314.3 270.5"/>
    <path class="st1" d="M200.6,155.2c-4.2,0-8.4-2.7-8.4-7.3v-18.8h5.6v18.7c0,1.7,1.8,2.4,2.8,2.4s2.8-.7,2.8-2.4v-18.7h5.6v18.7c0,4.7-4.2,7.3-8.3,7.3M200.9,125.9c-1.3,0-2.3-1-2.3-2.3s1.1-2.4,2.3-2.4,2.4,1,2.4,2.4-1.1,2.3-2.4,2.3"/>
    <path class="st1" d="M227.1,147.6h-2.3c-4.7,0-7.1-1.8-7.1-6.5v-19.9h5.5v20.3c0,.9.5,1.8,1.7,1.8h2.1v4.3Z"/>
    <rect class="st1" x="226.4" y="143.3" width="7.8" height="4.3"/>
    <rect class="st1" x="233.2" y="143.3" width="7.8" height="4.3"/>
    <rect class="st1" x="240" y="143.3" width="7.8" height="4.3"/>
    <rect class="st1" x="246.9" y="143.3" width="7.8" height="4.3"/>
    <rect class="st1" x="253.7" y="143.3" width="7.8" height="4.3"/>
    <rect class="st1" x="260.5" y="143.3" width="7.8" height="4.3"/>
    <rect class="st1" x="267.4" y="143.3" width="7.8" height="4.3"/>
    <path class="st1" d="M276.4,155.2c-1.3,0-2.3-1-2.3-2.3s1-2.4,2.3-2.4,2.4,1,2.4,2.4-1.1,2.3-2.4,2.3M288.8,147.6v-4.3h-1.9c-1.2,0-1.9-.7-1.9-1.9v-12.2h-5.6v13.7c-.4.3-.8.5-1.4.5h-3.2v4.3h1.7c2.8,0,4.4-.8,5.4-1.6.9.8,2.4,1.6,5.1,1.6h1.9ZM282.5,155.2c-1.3,0-2.3-1-2.3-2.3s1.1-2.4,2.3-2.4,2.4,1,2.4,2.4-1.1,2.3-2.4,2.3"/>
    <rect class="st1" x="288" y="143.3" width="7.8" height="4.3"/>
    <rect class="st1" x="294.8" y="143.3" width="7.8" height="4.3"/>
    <path class="st1" d="M312,131.2c3.4.2,5.9,2.2,5.9,7v9.4h-16.2v-4.3h10.6v-6.3c0-1.5-.9-2-2.4-2s-2.9.5-4,1h0s-1.3,1-1.3,1l-1.3-4.2,13-12,1.8,5.6-6.1,4.7Z"/>
    <path class="st1" d="M89,216c-9.4,0-13.6-3.8-13.6-12.4v-22.8h10.8v23.6c0,.7.2,3.2,3,3.2h22.4c2.7,0,3-2.2,3-3.2v-23.6h10.8v22.8c0,8.6-4.2,12.4-13.5,12.4h-23ZM106.1,175c-2.5,0-4.5-2-4.5-4.5s2-4.6,4.5-4.6,4.6,2,4.6,4.6-2,4.5-4.6,4.5M94.5,175c-2.5,0-4.4-2-4.4-4.5s2-4.6,4.4-4.6,4.7,2,4.7,4.6-2,4.5-4.7,4.5"/>
    <path class="st1" d="M89,215.9c-8.9,0-13.4-3.3-13.4-12.2v-22.6h10.5v23.5c0,1.7.9,3.3,3.2,3.3h22.4c2.4,0,3.2-1.6,3.2-3.3v-23.5h10.5v22.6c0,8.9-4.6,12.2-13.3,12.2h-23ZM94.5,174.9c-2.3,0-4.3-1.9-4.3-4.3s2-4.5,4.3-4.5,4.5,1.9,4.5,4.5-2,4.3-4.5,4.3M106.1,174.9c-2.4,0-4.4-1.9-4.4-4.3s1.9-4.5,4.4-4.5,4.4,1.9,4.4,4.5-2,4.3-4.4,4.3"/>
    <path class="st1" d="M149.3,216c-9.3,0-13.5-3.8-13.5-12.4v-74.8h10.7v75.6c0,.7.2,3.2,3,3.2h4.1v8.3h-4.4Z"/>
    <path class="st1" d="M153.5,215.9h-4.2c-8.7,0-13.3-3.3-13.3-12.2v-74.6h10.4v75.5c0,1.7.9,3.3,3.2,3.3h4v8.1Z"/>
    <path class="st1" d="M168.5,230.6c-2.5,0-4.5-2-4.5-4.6s1.9-4.6,4.5-4.6,4.6,2,4.6,4.6-2.1,4.6-4.6,4.6M156.8,230.6c-2.5,0-4.5-2-4.5-4.6s2-4.6,4.5-4.6,4.6,2,4.6,4.6-2.1,4.6-4.6,4.6M152.9,216v-8.3h6.1c2.7,0,3-2.2,3-3.2v-23.6h10.8v22.8c0,8.6-4.2,12.4-13.5,12.4h-6.3Z"/>
    <path class="st1" d="M156.8,230.4c-2.4,0-4.3-1.9-4.3-4.4s2-4.4,4.3-4.4,4.5,1.9,4.5,4.4-2.1,4.4-4.5,4.4M153,215.9h6.2c8.7,0,13.3-3.3,13.3-12.2v-22.6h-10.5v23.5c0,1.7-.8,3.3-3.1,3.3h-5.9v8.1ZM168.5,230.4c-2.4,0-4.4-1.9-4.4-4.4s1.9-4.4,4.4-4.4,4.4,1.9,4.4,4.4-2,4.4-4.4,4.4"/>
    <path class="st1" d="M192.1,230.5c-4.4,0-8.7-1.5-10.8-2.8h0c0,0,2.6-8.1,2.6-8.1h.2c2,1.4,4.7,2.1,7.3,2.1s5.6-1.7,5.6-5v-.7h-4.7c-7.6,0-12.7-6.5-12.7-16.2s5.8-18.9,16.3-18.9,9.2,1,11.5,2.6h0v24.2h7.9v8.3h-7.9c0,13.1-10.6,14.5-15.1,14.5M195.1,188.1c-3.6,0-4.9,2.6-4.9,10.1s1.2,9.6,4.8,9.6,1.6,0,1.9,0v-19.3c-.5-.2-1-.3-1.8-.3"/>
    <path class="st1" d="M207.2,207.8h7.9v8.1h-7.9c0,10.8-7.2,14.5-15,14.5s-8.4-1.3-10.8-2.8l2.6-7.7c1.9,1.2,4.6,2,7.4,2s5.7-1.9,5.7-5.1v-.9h-4.8c-7.1,0-12.6-6-12.6-16.1s5.4-18.7,16.1-18.7,9.1,1,11.4,2.6v24.2ZM197,188.3c-.5-.2-1.1-.4-1.9-.4-3.6,0-5,2.6-5,10.2s1.4,9.8,4.9,9.8,2.1,0,2.1,0v-19.5Z"/>
    <path class="st1" d="M237.4,216c-4.1,0-7.3-1-9.5-3-2.5,2-5.9,3-10.1,3h-3.4v-8.3h6.2c1,0,1.8-.3,2.5-.9v-41h10.8v38.3c0,2.2,1.3,3.5,3.5,3.5h3.8v8.3h-3.6Z"/>
    <path class="st1" d="M237.4,215.9c-5,0-7.9-1.5-9.5-3-1.8,1.5-4.8,3-10.1,3h-3.2v-8.1h6.1c1.1,0,1.9-.3,2.6-.9v-40.9h10.5v38.2c0,2.2,1.3,3.6,3.6,3.6h3.6v8.1h-3.5Z"/>
    <path class="st1" d="M240.2,216v-8.3h19.1v-15.6c0-2.5-1.4-3.6-4.4-3.6s-6.1,1.1-8,2.1h-.2c0,0-2.2-7-2.2-7h.1c1.3-.7,5.9-2.7,12.6-2.7s12.8,4.6,12.8,13.3v13.5h3.2v8.3h-33Z"/>
    <path class="st1" d="M259.4,207.8v-15.7c0-2.8-1.7-3.7-4.6-3.7s-6,1-8.1,2.1l-2.2-6.8c2.2-1.1,6.7-2.6,12.6-2.6s12.6,3.5,12.6,13.2v13.6h3.2v8.1h-32.7v-8.1h19.1Z"/>
    <path class="st1" d="M295.5,216c-4.1,0-7.4-1-9.6-3-2.5,2-5.9,3-10.1,3h-3.4v-8.3h6.2c1,0,1.8-.3,2.5-.9v-41h10.8v38.3c0,2.2,1.3,3.5,3.5,3.5h3.8v8.3h-3.6Z"/>
    <path class="st1" d="M295.5,215.9c-5,0-7.9-1.5-9.5-3-1.8,1.5-4.8,3-10.1,3h-3.2v-8.1h6c1.1,0,2-.3,2.6-.9v-40.9h10.5v38.2c0,2.2,1.3,3.6,3.6,3.6h3.6v8.1h-3.5Z"/>
    <path class="st1" d="M298.3,216v-8.3h6.1c2.7,0,2.9-2.2,2.9-3.2v-38.6h10.8v37.8c0,8.6-4.1,12.4-13.5,12.4h-6.3Z"/>
    <path class="st1" d="M298.4,207.8h5.9c2.3,0,3.1-1.6,3.1-3.3v-38.5h10.5v37.6c0,8.9-4.6,12.2-13.3,12.2h-6.2v-8.1Z"/>
    <path class="st1" d="M80.2,251.6c.6.4,1.4.6,2.5.6s1.8-.4,2.6-1.1c.8-.8,1.2-1.9,1.2-3.2s-.4-1.1-1.1-1.1c-1,0-1.6-.2-1.9-.6.4-.3.8-.6,1.4-.8.5-.2,1-.3,1.5-.5.7-1.3,1-2.2,1-2.7v-.2c-1,.2-2.2.9-3.7,2.2-1.6,1.5-2.4,2.8-2.4,3.9s.3,1.2,1,1.4c.5.1,1,.2,1.6.3-.4.4-1,.7-1.8,1-1.1.4-1.7.6-1.9.8"/>
    <path class="st1" d="M108,255.6v-4.7c-.2,0-.7.7-1.3,1.8-.6,1.1-1,1.8-1,2.2s0,.4,0,.7c0,.3,0,.5,0,.7h0c0,0-2.2,0-2.2,0,0-.2.3-1.8.9-4.9-.3,0-.7.4-1.4,1.5-.5.9-.9,1.7-1,2.2,0,.5-.1,1-.2,1.2h-3c0-.4.3-1.3.6-2.6.2-1,.4-1.8.4-2.4v-.5s-.1,0-.1,0c-.4.6-.8,1.2-1.2,1.8-.6.9-.9,1.5-.9,1.9,0,.8,0,1.5-.3,1.9h-3.8l-.6-.8c-.2-2.6-.3-5.2-.5-7.8-.3-4-.5-6.4-.8-7.2-.4.6-.8,1.3-1.1,2.2-.3.8-.7,1.6-1,2.3l1.1,11.2h0c0,0-12.2,0-12.2,0-.5,0-.9-.4-1.3-1.2-.4-.8-.5-1.5-.4-2.1l.3-2.6v-.5c-.4.4-.7,1.3-1.1,2.8-.3,1.4-.4,2.4-.4,3.2,0,1.3.3,2.5.9,3.5.6,1.1,1.4,1.6,2.3,1.6h10.9l1.1-2.8v2.1l.4.6h5.6c.1,0,.3-.2.5-.5.2-.2.3-.4.5-.7.2.4.3.7.3,1.1h3.7l.5-.7c.1.2.3.4.4.7h4.5c.2-.9.5-1.7.7-2.6.2-.9.4-1.8.4-2.8"/>
    <path class="st1" d="M131.9,245.5c-1,0-2,.9-3.2,2.6-1.2,1.7-1.7,3.2-1.7,4.6s.3,1.5,1,2.1c.6.5,1.2.8,1.9.8,1.2,0,2.2-.7,3-2.1.1.2.3.6.4,1.2.1.6.2,1.1.2,1.5v.2h-9.2c-.2-.2-.5-2.6-.8-7.3-.4-5.1-.6-7.9-.7-8.4h0c0,0-2.1,4.4-2.1,4.4.5,5.5.8,9.3,1,11.3h-3.1c-.2-.3-.4-1.2-.6-2.6-.2-1.4-.5-2.4-.7-3-.4-1-1-1.5-1.7-1.5s-1.8,1.2-2.7,3.5c-.8,2.1-1.2,3.8-1.2,5.2s.3,1.6.8,2c.4.3,1,.6,1.7.7.6,0,1.1.2,1.7.3-2.3,3-5.2,4.6-8.6,4.6.5.6,1.5,1,3,1.4,1.2.3,2.4.5,3.5.5,1.6,0,3-2.1,4.3-6.4h2.6c.5-1.2.9-2.2,1.2-2.8v1.6c0,.6.2,1,.6,1.2h12.5c.2-.6.4-1.6.6-3,.1-1.2.2-2.3.2-3.1,0-1.7-.3-3.6-.9-5.7-.7-2.5-1.6-3.8-2.7-3.8M130.9,251.3c-.4,0-.9-.3-1.6-1,0-.2.2-.4.4-.7.3-.3.5-.4.6-.4.2,0,.5.2.9.7.4.5.6.9.7,1.2-.7.2-1,.2-1,.2M115.3,256.5c-.4,0-.8-.1-1.3-.4-.5-.3-.8-.7-.8-1.2s.2-.6.5-.9c.3-.4.5-.6.7-.6.3,0,.6.4,1,1.1.4.8.6,1.3.6,1.7s-.2.3-.7.3"/>
    <path class="st1" d="M128.3,245.8c.2,0,.6-.4,1.3-1.1.7-.7,1-1.2,1-1.4s-.4-.6-1.1-1.5c-.7-.9-1.2-1.3-1.3-1.3s-.5.4-1.2,1.3c-.7.9-1,1.4-1,1.6s.3.6,1,1.3c.7.8,1.1,1.1,1.2,1.1"/>
    <path class="st1" d="M154.2,247.7c.2,0,.7-.4,1.5-1.2.8-.8,1.2-1.4,1.2-1.6s-.4-.7-1.3-1.7c-.8-1-1.3-1.5-1.5-1.5s-.6.5-1.4,1.5c-.8,1-1.2,1.6-1.2,1.8s.4.7,1.2,1.5c.8.8,1.3,1.3,1.4,1.3"/>
    <path class="st1" d="M165.2,246.5c.2,0,.7-.4,1.5-1.3.8-.8,1.2-1.4,1.2-1.6s-.4-.7-1.3-1.7c-.9-1-1.3-1.5-1.5-1.5-.2,0-.6.5-1.4,1.5-.8,1-1.1,1.6-1.1,1.8s.4.7,1.2,1.5c.8.9,1.3,1.3,1.4,1.3"/>
    <path class="st1" d="M177.9,249.3c-.8,0-1.7.6-2.5,1.9-.6.9-1.2,2.1-1.7,3.4.7-.5,1-.7,1-.8.3-.2.7-.3,1.2-.3.8,0,2.1.7,3.9,2.1-.8.5-1.9.8-3.4.8s-1.5,0-2.3-.2h-4c.3-.6.5-1.2.8-1.8.3-.6.4-1.3.4-1.9,0-.9-.1-1.8-.4-2.6-.3-1-.8-1.5-1.4-1.5-1.2,0-2.5.9-4,2.8-1.5,1.8-2.3,3.5-2.5,5.1h-3.6c.4-1,.5-1.5.5-1.5,0-.9-.5-2-1.5-3.3-1-1.3-1.9-2-2.5-2s-2.2.7-4.4,2.1c-2,1.3-3.4,2.3-4.3,3.2,0-.4,0-1.1.3-2.1.2-.9.3-1.6.3-2.1s0-1.3-.1-2.3c.5,0,.9-.5,1.3-1.5.3-.7.5-1.5.8-2.2-.8-.4-1.5-1-2.1-1.6-.8-.8-1.2-1.7-1.3-2.6-.3.1-.7.7-1.2,1.8-.5,1.1-.8,1.8-.8,2.2s0,.6.2.8c.1.3.3.5.4.7,0,.2.2,1.7.5,4.5.2,2.7.3,4.4.3,4.8,0,.7-.4,1-1.2,1-1.3,0-2.5-.6-3.6-1.7.3,4.2,1.3,6.3,3,6.3h33c.5,0,1.4-.4,2.5-1.3,1.2-.9,2.1-1.3,2.8-1.3s1.8.1,4.6.4h.3c1.2-2.4,1.9-3.7,2-4-1.3-.2-3.3-1.3-6-3.1-2.6-1.7-4.3-2.5-5.2-2.5M148.6,256.4c2.3-1.9,4-2.9,5.3-2.9s1.1.3,1.7,1c.6.6,1,1.2,1.3,1.9h-8.3ZM167.3,256.3c-.3,0-.8-.2-1.3-.5-.6-.3-.9-.7-.9-1.1s.3-.7.9-1.1c.6-.4,1-.5,1.3-.5s.7.3,1,.8c.3.5.5,1,.5,1.5s-.5.9-1.5.9"/>
    <path class="st1" d="M191.9,245.2c-.6,1.5-.9,2.4-.9,2.8l1.3,13.5c1.1-2,1.7-4.5,1.7-7.5s-.3-6.8-.9-11.5c-.4.7-.8,1.7-1.3,2.8"/>
    <path class="st1" d="M218.8,251.6c.6.4,1.4.6,2.5.6s1.8-.4,2.6-1.1c.8-.8,1.2-1.9,1.2-3.2s-.4-1.1-1.1-1.1c-1,0-1.6-.2-1.9-.6.4-.3.9-.6,1.4-.8.5-.2,1-.3,1.5-.5.7-1.3,1-2.2,1-2.7v-.2c-1,.2-2.2.9-3.7,2.2-1.6,1.5-2.4,2.8-2.4,3.9s.3,1.2,1,1.4c.5.1,1,.2,1.6.3-.4.4-1,.7-1.8,1-1.1.4-1.7.6-1.9.8"/>
    <path class="st1" d="M234.6,244.9c.7.5,1.1.8,1.3.8.6-.7,1.1-1.3,1.4-1.8,1.6,1.2,2.5,1.8,2.6,1.8.3,0,1-.9,1.9-2.8l-2.7-2s-.3.4-.9,1.1c-.5.6-.7.8-.8.8-.3,0-1.1-.6-2.3-1.8-.3.3-.7.7-1,1.3-.2.3-.5.8-.9,1.5.3.3.7.7,1.3,1.2"/>
    <path class="st1" d="M247,242.4l2.6,1.9c.3-.3.7-.7,1.1-1.3.3-.5.6-1,.9-1.5l-2.7-2c-.7.8-1.3,1.4-1.6,1.9-.2,0-.6-.3-1.2-.8-.6-.5-1-.9-1.2-1.1-1,1.3-1.6,2.2-2,2.8,1.4,1.3,2.3,1.9,2.7,1.9l1.4-1.8Z"/>
    <path class="st1" d="M253.8,254.9c0-1.7-.3-3.6-.9-5.7-.8-2.5-1.7-3.8-2.7-3.8s-2.1.9-3.2,2.6c-1.2,1.7-1.7,3.3-1.7,4.6s.3,1.5,1,2.1c.6.5,1.2.8,1.9.8,1.2,0,2.2-.7,3-2.1.4.7.6,1.6.6,2.7,0,0,0,.2,0,.2h-9.7c-1.1-.1-1.7-.7-1.7-1.8s0-.8.1-1.5c.1-.7.2-1.2.2-1.6v-2.2c-.4.5-.8,1.1-1.2,1.7-.5.7-.8,1.3-1,1.8,0,.2-.1.8-.1,1.7,0,.9,0,1.6-.2,2h-6.2l-.7-.8c-.2-2.6-.3-5.2-.5-7.8-.3-4-.5-6.4-.7-7.2-.4.6-.8,1.3-1.1,2.2-.3.8-.7,1.6-1,2.3l1.1,11.2h0c0,0-12.2,0-12.2,0-.5,0-.9-.4-1.3-1.2-.4-.8-.5-1.5-.4-2.1l.3-2.6v-.5c-.4.4-.7,1.3-1.1,2.8-.3,1.4-.4,2.4-.4,3.2,0,1.3.3,2.5.9,3.5.6,1.1,1.4,1.6,2.3,1.6h10.9l1.1-2.8v2.1l.4.6h8l1.2-2.8c.4,1.8,1.1,2.8,2.2,2.8h12.3c.2-.6.4-1.6.6-3,.2-1.2.2-2.3.2-3.1M249.2,251.3c-.5,0-1-.3-1.6-1,.3-.7.7-1.1,1-1.1s.5.3.9.8c.3.4.5.8.7,1.2-.6.2-1,.2-1,.2"/>
    <path class="st1" d="M262.1,248.4c-.9.3-1.7,1.4-2.5,3.1-.7,1.6-1.1,3.1-1.1,4.4s.1,2.1.4,2.7c.3.8.9,1.2,1.7,1.2s1.2-.2,1.6-.6c.2-.2.4-.7.6-1.3.2-.6.4-1,.5-1.2v.8c0,1.3-.8,2.9-2.5,4.7-1.6,1.6-3,2.6-4.1,2.9-1.4.3-2.5.4-3.2.5,2.4,1.2,4.5,1.8,6.3,1.8s2.7-1.5,3.8-4.6c.9-2.6,1.3-5,1.3-7.3s-.2-2.6-.7-4.2c-.6-1.8-1.2-2.8-2-2.9M262.2,255.1c-.3.3-.6.5-1,.5-.5,0-1-.3-1.4-1,0-.1,0-.2.1-.3,0-.2.2-.5.5-.8.2-.3.5-.4.7-.4.3,0,.5.2.8.7.2.4.3.8.3,1.2h0Z"/>
    <path class="st1" d="M283.1,247.7c.2,0,.7-.4,1.5-1.2.8-.8,1.2-1.4,1.2-1.6s-.4-.7-1.3-1.7c-.8-1-1.3-1.5-1.5-1.5s-.6.5-1.4,1.5c-.8,1-1.2,1.6-1.2,1.8s.4.7,1.2,1.5c.8.8,1.3,1.3,1.4,1.3"/>
    <path class="st1" d="M294.1,246.5c.2,0,.7-.4,1.5-1.3.8-.8,1.2-1.4,1.2-1.6s-.4-.7-1.3-1.7c-.9-1-1.3-1.5-1.5-1.5s-.6.5-1.4,1.5c-.8,1-1.2,1.6-1.2,1.8s.4.7,1.2,1.5c.8.9,1.3,1.3,1.4,1.3"/>
    <path class="st1" d="M306.9,249.3c-.8,0-1.7.6-2.5,1.9-.6.9-1.2,2.1-1.7,3.4.6-.5,1-.7,1.1-.8.3-.2.7-.3,1.2-.3.8,0,2.1.7,3.9,2.1-.8.5-1.9.8-3.4.8s-1.5,0-2.4-.2h-4c.3-.6.5-1.2.8-1.8.3-.6.4-1.3.4-1.9,0-.9-.1-1.8-.4-2.6-.3-1-.8-1.5-1.4-1.5-1.2,0-2.5.9-4,2.8-1.5,1.8-2.3,3.5-2.5,5.1h-3.6c.4-1,.5-1.5.5-1.5,0-.9-.5-2-1.5-3.3-1-1.3-1.9-2-2.5-2s-2.2.7-4.4,2.1c-2,1.3-3.4,2.3-4.3,3.2,0-.4,0-1.1.3-2.1.2-.9.3-1.6.3-2.1s0-1.3-.1-2.3c.5,0,.9-.5,1.3-1.5.3-.7.5-1.5.8-2.2-.8-.4-1.5-1-2.1-1.6-.8-.8-1.2-1.7-1.3-2.6-.3.1-.7.7-1.2,1.8-.5,1.1-.8,1.8-.8,2.2s0,.6.2.8c.1.3.3.5.4.7,0,.2.2,1.7.5,4.5.2,2.7.3,4.4.3,4.8,0,.7-.4,1-1.2,1-1.3,0-2.5-.6-3.6-1.7.3,4.2,1.3,6.3,3,6.3h33c.5,0,1.4-.4,2.5-1.3,1.2-.9,2.1-1.3,2.8-1.3s1.7.1,4.6.4h.3c1.2-2.4,1.9-3.7,2-4-1.3-.2-3.3-1.3-6-3.1-2.6-1.7-4.3-2.5-5.2-2.5M277.5,256.4c2.3-1.9,4-2.9,5.3-2.9s1.1.3,1.7,1c.6.6,1,1.2,1.3,1.9h-8.3ZM296.2,256.3c-.3,0-.8-.2-1.3-.5-.6-.3-.9-.7-.9-1.1s.3-.7.9-1.1c.6-.4,1-.5,1.3-.5s.7.3,1,.8c.3.5.5,1,.5,1.5s-.5.9-1.5.9"/>
    <path class="st1" d="M322.1,242.4c-.4.7-.8,1.7-1.3,2.8-.6,1.5-.9,2.4-.9,2.8l1.3,13.5c1.1-2,1.7-4.5,1.7-7.5s-.3-6.8-.9-11.5"/>
    <rect class="st1" x="203.1" y="240.3" width="2.4" height="21.4"/>
    <path class="st1" d="M67,209.1c-.2-.6-.6-1.1-1-1.5-.5-.5-1-.8-1.6-1-.6-.3-1.2-.4-1.9-.4s-1.3.1-1.9.4c-.6.2-1.1.6-1.6,1-.4.5-.8,1-1,1.5-.3.6-.4,1.2-.4,1.9s.1,1.3.4,1.9c.2.6.6,1.1,1,1.6.4.4,1,.8,1.6,1,.6.3,1.2.4,1.9.4s1.3-.1,1.9-.4c.6-.2,1.1-.6,1.6-1,.4-.5.8-1,1-1.6.3-.6.4-1.2.4-1.9s-.1-1.3-.4-1.9M62.6,215.3c-2.3,0-4.3-1.9-4.3-4.3s1.9-4.3,4.3-4.3,4.3,1.9,4.3,4.3-1.9,4.3-4.3,4.3"/>
    <path class="st1" d="M64.4,212c-.1-.3-.3-.6-.6-.8.5-.3.8-.8.8-1.4s-.2-.9-.6-1.2c-.4-.3-.9-.4-1.6-.4s-.9,0-1.5.2h0v5.6h.9v-2.4h.8c.7,0,1.1.8,1.3,2.3h0c0,0,.9,0,.9,0h0c-.1-.9-.3-1.6-.4-1.9M63.4,210.5c-.2.2-.5.2-.9.2h-.8v-1.7c.2,0,.4,0,.7,0,.9,0,1.3.3,1.3.9s0,.5-.3.6"/>
  </g>
</svg>