<?xml version="1.0" standalone="no"?>
<!DOCTYPE svg PUBLIC "-//W3C//DTD SVG 20010904//EN"
 "http://www.w3.org/TR/2001/REC-SVG-20010904/DTD/svg10.dtd">
<svg version="1.0" xmlns="http://www.w3.org/2000/svg"
 width="600.000000pt" height="353.000000pt" viewBox="0 0 600.000000 353.000000"
 preserveAspectRatio="xMidYMid meet">
<g transform="translate(0.000000,353.000000) scale(0.100000,-0.100000)"
fill="#000000" stroke="none">
<path d="M3310 2765 c0 -154 0 -155 23 -155 22 0 22 1 19 135 l-3 135 1188 0
1188 0 0 -1185 0 -1185 -1188 0 -1188 0 3 90 c3 88 2 90 -19 90 -22 0 -23 -3
-23 -112 l0 -113 1230 3 1230 2 0 1225 0 1225 -1230 0 -1230 0 0 -155z"/>
<path d="M3954 2719 c-3 -6 -2 -15 3 -20 5 -5 9 -1 9 11 0 23 -2 24 -12 9z"/>
<path d="M3915 2568 c-33 -57 -89 -153 -126 -215 l-67 -112 42 -58 c151 -210
282 -486 363 -770 20 -71 69 -251 107 -402 39 -151 76 -276 81 -278 6 -1 25
32 43 75 90 215 117 352 117 607 0 183 -1 195 -33 320 -78 302 -281 721 -439
903 l-28 32 -60 -102z m89 36 c3 -8 6 -18 7 -22 1 -4 12 -17 26 -29 22 -21 22
-27 1 -24 -4 0 -5 -6 -1 -15 5 -13 7 -13 14 -2 8 12 13 4 10 -15 -1 -5 3 -6 8
-3 5 3 15 -2 22 -11 12 -14 12 -16 -1 -8 -8 5 -4 -3 10 -18 14 -14 25 -30 25
-34 1 -4 11 -23 22 -42 12 -19 19 -39 16 -44 -3 -6 -1 -7 5 -3 7 4 14 -4 18
-21 4 -15 13 -35 20 -43 21 -25 46 -91 40 -107 -4 -9 -2 -11 6 -7 8 5 9 2 5
-9 -4 -10 -2 -16 5 -14 12 2 78 -151 82 -188 1 -5 7 -20 14 -33 7 -12 10 -28
6 -34 -4 -7 -3 -8 4 -4 7 4 15 -9 22 -36 6 -24 16 -59 24 -79 8 -22 10 -44 5
-58 -6 -13 -5 -20 1 -16 11 7 24 -39 17 -59 -3 -7 -1 -18 5 -24 7 -7 11 -72
11 -169 1 -156 -3 -200 -22 -277 -5 -21 -7 -45 -4 -54 5 -11 3 -13 -7 -7 -9 6
-11 4 -5 -5 8 -12 -6 -69 -31 -127 -8 -21 -10 -33 -3 -33 5 0 7 -5 4 -10 -4
-6 -11 -7 -17 -4 -8 5 -9 1 -5 -10 4 -10 -2 -34 -13 -57 -11 -21 -18 -39 -15
-39 3 0 0 -6 -7 -14 -11 -12 -14 -10 -19 13 -4 14 -7 44 -8 66 -1 30 -4 36
-11 25 -8 -11 -9 -7 -4 14 4 17 3 27 -2 23 -6 -3 -11 2 -11 11 -1 9 -13 61
-27 115 -14 54 -22 105 -19 114 5 11 3 14 -6 8 -10 -6 -11 -3 -1 15 7 13 8 20
2 16 -14 -8 -25 28 -17 57 5 17 4 19 -4 7 -10 -13 -11 -13 -12 0 -1 8 -2 20
-3 25 -3 17 -28 99 -37 123 -6 15 -6 21 1 17 6 -3 7 1 4 9 -3 9 -10 16 -15 16
-5 0 -9 8 -9 18 0 10 -3 22 -7 25 -3 4 -8 21 -10 38 -2 18 -12 47 -24 65 -11
19 -17 39 -13 45 5 8 3 9 -6 4 -10 -6 -12 0 -8 23 3 19 0 30 -6 29 -6 -1 -10
6 -8 17 2 12 -1 16 -9 10 -9 -5 -10 -2 -6 9 3 10 3 17 -1 17 -10 0 -42 66 -42
86 0 9 -5 12 -12 8 -8 -5 -9 -2 -5 9 4 10 2 17 -5 17 -6 0 -5 6 3 17 12 15 12
16 -4 10 -10 -4 -16 -3 -12 2 3 5 1 12 -4 16 -6 3 -20 27 -33 53 -13 26 -25
49 -28 52 -3 3 -14 15 -24 28 -20 23 -20 23 0 16 13 -5 10 0 -8 15 -16 12 -28
28 -28 36 0 7 -7 15 -15 19 -8 3 -15 15 -15 26 0 11 -7 20 -15 20 -8 0 -12 6
-9 14 3 7 -2 16 -11 20 -9 3 -13 11 -9 17 4 8 9 7 15 -2 5 -9 8 -4 6 16 -1 20
2 29 11 28 7 -2 12 7 12 21 0 26 22 50 35 38 5 -4 5 -1 1 6 -9 14 57 125 68
115 4 -4 4 0 1 8 -6 17 51 119 68 119 5 0 7 7 4 14 -4 10 -1 13 8 10 7 -3 16
-12 19 -20z"/>
<path d="M4080 2446 c0 -3 9 -10 20 -16 11 -6 20 -8 20 -6 0 3 -9 10 -20 16
-11 6 -20 8 -20 6z"/>
<path d="M3819 2276 c9 -10 8 -16 -4 -26 -8 -7 -15 -17 -15 -22 0 -6 8 0 19
13 19 23 18 49 -1 49 -7 0 -6 -5 1 -14z"/>
<path d="M4335 859 c-4 -6 -5 -12 -2 -15 2 -3 7 2 10 11 7 17 1 20 -8 4z"/>
<path d="M4144 2563 c4 -7 2 -22 -4 -34 -9 -16 -9 -24 0 -33 8 -8 9 -6 4 8 -4
12 -4 17 2 13 12 -7 12 38 0 50 -5 4 -6 3 -2 -4z"/>
<path d="M2205 2480 c3 -5 8 -10 11 -10 2 0 4 5 4 10 0 6 -5 10 -11 10 -5 0
-7 -4 -4 -10z"/>
<path d="M2250 2480 c0 -5 5 -10 11 -10 5 0 7 5 4 10 -3 6 -8 10 -11 10 -2 0
-4 -4 -4 -10z"/>
<path d="M3359 2474 c-7 -8 -7 -14 1 -19 6 -4 9 -1 8 6 -2 7 2 13 9 14 17 0
25 12 8 12 -8 0 -20 -6 -26 -13z"/>
<path d="M3774 2479 c-3 -6 -2 -15 3 -20 5 -5 9 -1 9 11 0 23 -2 24 -12 9z"/>
<path d="M3803 2468 c-1 -11 1 -16 5 -12 4 5 11 12 15 15 5 3 2 9 -5 12 -9 3
-14 -3 -15 -15z"/>
<path d="M2056 2471 c-3 -5 2 -15 12 -22 15 -12 16 -12 5 2 -7 9 -10 19 -6 22
3 4 4 7 0 7 -3 0 -8 -4 -11 -9z"/>
<path d="M2165 2470 c-3 -6 1 -7 9 -4 18 7 21 14 7 14 -6 0 -13 -4 -16 -10z"/>
<path d="M2006 2458 c3 -5 10 -6 15 -3 13 9 11 12 -6 12 -8 0 -12 -4 -9 -9z"/>
<path d="M3299 2366 c-63 -61 -74 -77 -68 -94 7 -18 11 -19 37 -10 46 18 62 6
62 -47 l0 -46 -157 3 -158 3 -3 83 -3 82 -32 0 -32 0 0 -82 0 -83 -325 0 -325
0 -3 128 -3 127 -32 0 -32 0 3 -134 c3 -119 5 -136 23 -152 19 -17 43 -18 362
-16 188 2 351 3 362 3 11 0 111 -2 223 -4 l202 -5 0 58 c0 98 -23 136 -75 125
-11 -2 -24 -4 -28 -4 -5 -1 -6 -5 -3 -10 7 -11 -21 -8 -31 4 -4 4 -2 5 5 1 8
-5 12 0 12 15 0 18 2 19 15 9 13 -11 14 -10 9 4 -3 9 -1 16 4 16 6 0 12 -6 14
-14 2 -10 13 -5 39 17 35 30 36 34 25 64 l-11 31 -76 -72z m68 12 c-2 -7 -10
-12 -16 -10 -6 1 -11 -2 -11 -8 0 -5 -5 -10 -12 -10 -6 0 -3 9 7 20 20 22 39
27 32 8z m-385 -140 c-10 -22 -17 -3 -13 35 l5 42 6 -35 c3 -19 4 -38 2 -42z
m381 41 c5 -3 2 -9 -5 -12 -9 -3 -14 3 -15 15 -1 11 1 16 5 12 4 -5 11 -12 15
-15z m-1093 -33 c0 -3 -4 -8 -10 -11 -5 -3 -10 -1 -10 4 0 6 5 11 10 11 6 0
10 -2 10 -4z m5 -36 c3 -6 -1 -7 -9 -4 -18 7 -21 14 -7 14 6 0 13 -4 16 -10z
m706 -17 c-12 -20 -14 -14 -5 12 4 9 9 14 11 11 3 -2 0 -13 -6 -23z m-701 -22
c7 -14 7 -22 -2 -27 -7 -4 -8 -3 -4 4 4 7 2 12 -4 12 -6 0 -9 4 -6 9 4 5 0 12
-6 14 -10 4 -10 6 -1 6 7 1 17 -8 23 -18z m1090 -11 c0 -5 -7 -7 -15 -4 -8 4
-12 10 -9 15 6 11 24 2 24 -11z"/>
<path d="M2004 2415 c-4 -9 -2 -21 4 -27 16 -16 47 -5 47 17 0 26 -42 34 -51
10z"/>
<path d="M2958 2403 c6 -3 12 -11 12 -19 0 -8 -6 -11 -17 -7 -10 3 -15 3 -12
-1 4 -4 19 -9 35 -11 16 -2 23 -2 17 1 -7 3 -13 10 -13 15 0 4 6 7 13 5 6 -1
9 -1 4 1 -4 3 -5 8 -3 11 2 4 -8 8 -22 8 -15 1 -21 -1 -14 -3z"/>
<path d="M1958 2393 c6 -2 9 -10 6 -15 -4 -7 -2 -8 5 -4 13 9 5 26 -12 25 -9
0 -8 -2 1 -6z"/>
<path d="M1420 2381 c0 -6 4 -13 10 -16 6 -3 7 1 4 9 -7 18 -14 21 -14 7z"/>
<path d="M1270 1890 c0 -582 -10 -553 200 -558 216 -6 230 10 230 252 l0 156
-62 0 -63 0 3 -143 c4 -172 2 -177 -88 -177 -99 0 -90 -48 -90 466 l0 454 -65
0 -65 0 0 -450z m123 -468 c19 -10 18 -10 -10 -5 -21 3 -33 1 -33 -5 0 -6 7
-9 15 -6 8 3 19 2 26 -2 23 -14 153 -7 189 10 19 9 26 14 15 11 -16 -5 -18 -4
-7 6 8 9 12 53 12 146 l0 133 41 0 41 0 -4 -148 c-5 -158 -16 -198 -49 -189
-12 3 -19 0 -19 -8 0 -18 -237 -13 -267 5 -48 30 -48 37 -45 502 l2 437 33 3
32 3 3 -441 2 -441 23 -11z"/>
<path d="M1316 1442 c-3 -4 4 -9 15 -9 23 -2 25 3 4 10 -8 4 -16 3 -19 -1z"/>
<path d="M1330 1401 c5 -11 15 -23 21 -27 6 -3 3 5 -6 20 -20 30 -30 35 -15 7z"/>
<path d="M1610 1399 c0 -5 5 -7 10 -4 6 3 10 8 10 11 0 2 -4 4 -10 4 -5 0 -10
-5 -10 -11z"/>
<path d="M1560 1391 c0 -6 4 -13 10 -16 6 -3 7 1 4 9 -7 18 -14 21 -14 7z"/>
<path d="M1930 2215 c0 -120 1 -127 25 -150 33 -34 103 -35 140 -2 25 21 26
26 28 150 l2 127 -32 0 -33 0 0 -114 c0 -118 -8 -144 -44 -130 -20 8 -19 4
-16 137 l2 107 -36 0 -36 0 0 -125z m159 -69 c-9 -8 -10 -6 -5 7 3 10 7 51 8
90 l2 72 3 -79 c3 -52 0 -83 -8 -90z m-13 -63 c-15 -13 -32 -23 -39 -22 -7 0
-2 5 9 11 12 5 28 21 35 35 8 15 15 20 18 12 2 -7 -8 -23 -23 -36z m-92 18
c19 -21 3 -42 -17 -22 -6 6 -7 11 -3 11 5 0 3 7 -4 15 -18 22 4 18 24 -4z"/>
<path d="M3404 2319 c-8 -14 14 -19 25 -6 8 10 7 14 -5 14 -8 0 -17 -4 -20 -8z"/>
<path d="M3687 2313 c3 -7 6 -13 8 -13 1 0 7 6 13 13 8 10 6 13 -7 13 -11 0
-17 -6 -14 -13z"/>
<path d="M4280 2326 c0 -2 8 -10 18 -17 15 -13 16 -12 3 4 -13 16 -21 21 -21
13z"/>
<path d="M3715 2200 c10 -11 20 -20 23 -20 3 0 -3 9 -13 20 -10 11 -20 20 -23
20 -3 0 3 -9 13 -20z"/>
<path d="M4300 2215 c0 -5 5 -17 10 -25 5 -8 10 -10 10 -5 0 6 -5 17 -10 25
-5 8 -10 11 -10 5z"/>
<path d="M3686 2197 c3 -10 9 -15 12 -12 3 3 0 11 -7 18 -10 9 -11 8 -5 -6z"/>
<path d="M2167 2151 c-4 -17 -3 -21 5 -13 5 5 8 16 6 23 -3 8 -7 3 -11 -10z"/>
<path d="M2186 2123 c-6 -14 -5 -15 5 -6 7 7 10 15 7 18 -3 3 -9 -2 -12 -12z"/>
<path d="M2886 2074 c-4 -10 -2 -22 3 -27 15 -15 46 -3 46 18 0 26 -40 33 -49
9z"/>
<path d="M2967 2084 c-4 -4 -7 -16 -7 -26 0 -14 6 -19 23 -16 14 2 22 10 22
23 0 20 -25 32 -38 19z"/>
<path d="M4992 2023 c-134 -314 -202 -488 -193 -491 7 -2 52 -31 102 -63 87
-58 153 -117 268 -242 29 -32 54 -57 56 -55 1 2 139 301 228 495 8 18 1 33
-42 96 -52 75 -152 181 -207 219 -37 25 -165 88 -180 88 -6 0 -21 -21 -32 -47z
m94 -4 c8 -6 14 -9 14 -5 0 7 44 -19 73 -44 10 -8 23 -15 30 -15 7 0 11 -8 11
-18 -1 -9 2 -14 7 -11 5 3 9 1 9 -5 0 -6 6 -8 13 -5 19 7 52 -32 36 -42 -8 -5
-10 -3 -4 7 4 8 -1 5 -12 -6 -24 -23 -22 -31 4 -17 23 12 43 5 43 -14 0 -9 4
-13 9 -10 5 3 14 -1 21 -9 11 -13 10 -14 -5 -9 -13 5 -16 4 -11 -4 4 -7 14
-12 22 -12 8 0 18 -8 21 -17 4 -10 14 -25 22 -33 27 -26 40 -56 30 -71 -5 -8
-9 -18 -9 -24 0 -5 5 -3 10 5 6 9 10 10 10 3 0 -6 -4 -15 -10 -18 -5 -3 -15
-15 -21 -27 -8 -16 -8 -19 1 -13 7 4 1 -10 -14 -31 -14 -21 -26 -44 -26 -51 0
-7 -4 -13 -10 -13 -5 0 -7 -6 -4 -13 2 -7 -10 -37 -28 -67 -19 -30 -40 -74
-47 -97 -13 -39 -21 -48 -44 -44 -4 1 -4 -7 2 -17 6 -11 5 -25 -3 -40 -11 -21
-14 -21 -25 -8 -7 8 -9 21 -5 28 6 9 3 9 -9 -1 -16 -13 -17 -12 -8 11 8 22 7
25 -12 24 -26 -2 -62 38 -51 56 5 8 0 7 -11 -2 -17 -14 -17 -14 -7 5 9 18 7
21 -10 22 -23 2 -60 32 -53 43 2 4 -2 7 -10 7 -15 0 -83 53 -84 66 -1 5 4 5
11 1 7 -4 8 -3 4 4 -4 7 -17 17 -29 22 -21 11 -21 11 -3 -4 13 -11 15 -16 6
-16 -8 0 -25 10 -38 23 -14 12 -22 16 -17 8 5 -8 -3 -7 -21 5 -16 10 -30 19
-32 19 -4 3 28 75 34 75 3 0 2 -5 -2 -12 -5 -7 -3 -8 5 -3 9 5 10 10 2 18 -15
15 -14 32 2 19 9 -8 12 -2 14 23 2 43 39 128 53 120 6 -4 7 1 3 11 -4 10 -2
15 3 11 6 -3 10 6 9 21 0 15 10 46 22 69 12 22 18 45 15 49 -4 4 -1 3 7 -1 10
-6 13 -4 9 6 -3 8 0 23 8 33 7 11 11 23 8 27 -3 5 0 9 6 9 6 0 8 5 5 10 -9 14
42 5 61 -11z"/>
<path d="M5005 1969 c-6 -8 -4 -10 5 -4 10 6 12 4 6 -11 -6 -15 -5 -17 5 -6 9
9 10 15 2 23 -8 8 -13 7 -18 -2z"/>
<path d="M5140 1960 c8 -5 20 -10 25 -10 6 0 3 5 -5 10 -8 5 -19 10 -25 10 -5
0 -3 -5 5 -10z"/>
<path d="M5360 1711 c0 -6 4 -13 10 -16 6 -3 7 1 4 9 -7 18 -14 21 -14 7z"/>
<path d="M5285 1519 c-4 -6 -5 -12 -2 -15 2 -3 7 2 10 11 7 17 1 20 -8 4z"/>
<path d="M5309 1503 c-13 -16 -12 -17 4 -4 9 7 17 15 17 17 0 8 -8 3 -21 -13z"/>
<path d="M5306 1443 c-6 -14 -5 -15 5 -6 7 7 10 15 7 18 -3 3 -9 -2 -12 -12z"/>
<path d="M3796 2047 c3 -10 9 -15 12 -12 3 3 0 11 -7 18 -10 9 -11 8 -5 -6z"/>
<path d="M1923 2027 c0 -8 6 -14 14 -14 9 0 10 4 2 14 -6 7 -12 13 -14 13 -1
0 -2 -6 -2 -13z"/>
<path d="M5235 2000 c-4 -6 1 -7 11 -3 13 5 15 3 9 -7 -5 -9 -4 -11 3 -6 7 4
12 2 12 -5 0 -7 3 -9 6 -6 8 7 -14 37 -27 37 -4 0 -11 -4 -14 -10z"/>
<path d="M3425 1921 c-3 -5 -2 -12 3 -15 5 -3 9 1 9 9 0 17 -3 19 -12 6z"/>
<path d="M756 1897 c-46 -33 12 -114 59 -83 42 28 24 96 -25 96 -9 0 -24 -6
-34 -13z m40 -20 c9 3 14 -2 14 -16 0 -14 -6 -21 -20 -21 -11 0 -20 5 -20 11
0 5 6 7 13 3 10 -6 10 -4 0 7 -7 7 -13 18 -12 24 0 5 3 5 5 -2 3 -7 12 -9 20
-6z"/>
<path d="M885 1890 c-22 -25 -13 -68 17 -79 54 -20 94 27 64 74 -20 30 -56 33
-81 5z m30 -10 c-8 -13 8 -13 21 0 8 8 10 1 9 -20 -2 -41 -8 -44 -35 -20 -13
11 -18 20 -12 20 7 0 11 3 11 8 -2 12 1 22 7 22 3 0 2 -4 -1 -10z"/>
<path d="M2290 1671 c0 -209 -2 -240 -16 -245 -9 -3 -52 -6 -96 -6 l-81 0 5
144 c7 164 13 151 -81 166 -153 26 -253 -71 -238 -231 10 -112 63 -169 156
-169 58 0 63 -9 25 -47 -21 -21 -32 -24 -62 -20 -20 3 -44 8 -53 12 -12 5 -20
-4 -33 -35 -9 -23 -14 -45 -11 -49 2 -5 25 -14 50 -21 55 -15 147 -8 181 15
35 23 64 74 64 113 l0 32 90 0 c54 0 104 6 124 14 27 11 36 11 57 0 37 -20
583 -20 622 1 25 13 32 13 59 -1 24 -12 56 -15 153 -12 115 3 125 5 149 27 14
14 30 41 36 60 5 20 10 138 10 264 l0 227 -65 0 -65 0 0 -233 c0 -168 -3 -236
-12 -245 -15 -15 -122 -16 -149 -2 -18 10 -19 24 -19 245 l0 235 -62 0 -63 0
3 -237 c2 -184 0 -238 -10 -245 -7 -4 -38 -8 -68 -8 l-55 0 3 77 c5 102 -12
177 -45 203 -42 33 -94 42 -166 30 -88 -16 -91 -19 -77 -67 l12 -40 49 15 c38
12 54 13 74 4 24 -11 25 -14 25 -117 l0 -106 -149 2 -150 2 2 243 2 244 -62 0
-63 0 0 -239z m729 207 c11 -10 13 -10 7 0 -9 15 13 16 34 1 12 -9 11 -10 -5
-5 -19 6 -19 5 -2 -8 16 -13 18 -32 16 -209 -1 -107 2 -201 6 -208 6 -8 4 -10
-6 -5 -8 4 0 -4 16 -18 24 -21 41 -26 83 -26 30 0 51 -4 47 -9 -3 -5 0 -13 6
-17 8 -4 9 -3 5 4 -7 11 27 36 36 26 3 -2 13 6 21 20 14 20 17 62 19 243 l3
218 34 3 c20 2 31 0 27 -6 -3 -6 -3 -12 1 -14 5 -1 6 -97 3 -211 -3 -115 -2
-211 2 -213 8 -5 -18 -58 -37 -74 -8 -6 -18 -9 -24 -6 -5 3 -11 1 -13 -5 -5
-16 -167 -12 -187 4 -12 10 -13 9 -6 -2 5 -8 4 -12 -1 -9 -5 3 -17 8 -27 11
-15 6 -16 11 -7 29 9 20 9 21 -2 7 -14 -16 -48 -22 -48 -7 0 4 -4 8 -10 8 -5
0 -10 -9 -10 -19 0 -15 -6 -19 -20 -16 -11 2 -18 0 -15 -6 4 -6 -101 -8 -279
-7 -240 3 -285 5 -281 17 4 11 2 11 -9 2 -8 -7 -17 -8 -20 -3 -3 5 -19 12 -35
14 -18 3 -28 0 -24 -5 4 -6 -3 -8 -16 -4 -15 4 -21 2 -18 -6 8 -20 -109 -22
-138 -3 -21 14 -24 14 -19 1 6 -14 -13 -21 -41 -15 -5 1 -7 -1 -3 -5 3 -4 2
-21 -4 -38 -5 -18 -10 -41 -9 -52 0 -14 -2 -16 -8 -6 -6 9 -11 10 -15 2 -4 -6
-4 -15 -1 -21 4 -6 -1 -7 -11 -3 -11 4 -15 3 -10 -5 13 -22 -25 -34 -112 -35
-68 0 -93 12 -74 36 7 8 8 17 4 22 -4 4 3 2 16 -4 13 -7 30 -10 37 -7 8 3 17
1 21 -5 4 -6 11 -6 21 2 11 10 16 10 22 0 6 -9 11 -8 22 5 9 12 10 15 2 10 -7
-4 -13 -2 -13 3 0 6 5 11 10 11 14 0 31 46 24 65 -7 17 -29 25 -85 30 -45 4
-93 40 -84 63 2 7 1 10 -4 7 -14 -8 -24 32 -17 63 5 19 4 23 -3 13 -11 -17 -8
54 4 82 4 10 5 21 1 24 -10 10 15 33 28 26 6 -4 4 2 -4 12 -14 17 -13 18 2 12
10 -4 17 -2 15 4 -1 6 7 16 18 22 11 7 22 15 25 18 9 12 141 8 161 -4 17 -11
19 -24 19 -149 0 -137 0 -138 24 -144 42 -10 146 -10 146 1 0 6 5 3 10 -5 8
-12 10 -12 10 -1 0 11 3 11 17 0 12 -10 15 -11 9 -1 -4 7 -3 19 4 26 7 10 11
86 11 235 l0 221 33 0 34 0 7 -217 c7 -208 14 -261 36 -248 5 4 9 2 9 -3 0
-10 0 -10 155 -14 152 -4 155 -1 155 126 0 87 -13 136 -37 136 -12 0 -17 12
-14 33 0 4 -4 7 -10 7 -6 0 -8 -7 -5 -16 4 -11 2 -15 -8 -11 -8 3 -17 3 -21
-1 -4 -4 -20 -7 -36 -7 -21 0 -29 4 -27 15 2 11 24 18 75 24 65 8 74 7 102
-13 40 -29 57 -67 51 -116 -9 -71 0 -165 16 -165 8 0 14 -5 14 -11 0 -8 5 -8
15 1 8 7 15 9 15 4 0 -5 27 -9 60 -10 33 0 60 3 60 8 0 4 -8 5 -17 2 -11 -3
-5 5 12 21 17 14 23 23 15 20 -13 -4 -15 6 -13 67 8 227 7 368 -2 372 -5 3 -3
5 6 5 8 1 21 -5 28 -11z"/>
<path d="M1937 1683 c-9 -2 -15 -8 -12 -13 3 -4 -3 -14 -12 -21 -15 -12 -16
-12 -9 6 4 11 3 16 -1 11 -4 -4 -9 -17 -10 -29 -1 -12 -6 -41 -12 -65 -8 -30
-8 -49 -1 -62 6 -12 7 -20 1 -20 -16 0 0 -38 27 -65 14 -15 35 -25 46 -23 12
1 26 -1 32 -4 14 -9 15 -3 21 121 5 109 -1 156 -17 146 -6 -3 -10 1 -10 9 0
16 -9 18 -43 9z m46 -145 c-1 -96 -4 -114 -18 -116 -9 -2 -25 4 -36 14 -16 14
-19 31 -19 96 0 93 10 118 48 118 l27 0 -2 -112z"/>
<path d="M1865 1620 c-3 -5 -1 -10 4 -10 6 0 11 5 11 10 0 6 -2 10 -4 10 -3 0
-8 -4 -11 -10z"/>
<path d="M2305 1420 c-3 -5 -1 -10 4 -10 6 0 11 5 11 10 0 6 -2 10 -4 10 -3 0
-8 -4 -11 -10z"/>
<path d="M3039 1413 c-13 -16 -12 -17 4 -4 16 13 21 21 13 21 -2 0 -10 -8 -17
-17z"/>
<path d="M3093 1403 c4 -3 1 -13 -6 -22 -10 -14 -10 -14 4 -4 9 7 20 9 25 5 4
-4 2 1 -5 11 -7 9 -16 17 -19 17 -3 0 -2 -3 1 -7z"/>
<path d="M1943 1377 c0 -8 6 -14 14 -14 9 0 10 4 2 14 -6 7 -12 13 -14 13 -1
0 -2 -6 -2 -13z"/>
<path d="M2426 1378 c3 -4 11 -5 19 -1 21 7 19 12 -4 10 -11 0 -18 -5 -15 -9z"/>
<path d="M3270 1371 c0 -6 4 -13 10 -16 6 -3 7 1 4 9 -7 18 -14 21 -14 7z"/>
<path d="M1845 1210 c-3 -6 1 -7 9 -4 18 7 21 14 7 14 -6 0 -13 -4 -16 -10z"/>
<path d="M5426 1797 c3 -10 9 -15 12 -12 3 3 0 11 -7 18 -10 9 -11 8 -5 -6z"/>
<path d="M851 1790 c-9 -5 -10 -10 -2 -14 6 -4 11 -1 11 6 0 10 2 10 9 -1 5
-8 11 -9 15 -3 8 13 -17 22 -33 12z"/>
<path d="M974 1779 c-4 -7 -3 -9 4 -5 5 3 13 0 15 -6 4 -9 6 -10 6 -1 1 17
-16 25 -25 12z"/>
<path d="M568 1578 c2 -98 8 -173 15 -188 25 -51 63 -60 275 -60 289 0 292 3
292 254 l0 156 -65 0 -65 0 0 -154 c0 -131 -2 -155 -16 -160 -31 -12 -289 -7
-302 6 -8 8 -12 58 -12 160 l0 148 -62 0 -63 0 3 -162z m102 -12 c3 -81 1
-141 -4 -147 -6 -5 -7 -9 -3 -9 18 0 23 -2 42 -18 19 -16 19 -16 5 2 -14 18
-13 19 3 13 10 -4 73 -7 138 -7 72 0 118 -4 114 -9 -3 -5 0 -13 6 -17 8 -4 9
-3 5 4 -4 7 -3 12 3 12 5 0 23 12 40 26 l31 26 0 134 0 134 35 0 c45 0 48 -14
41 -169 -8 -189 -6 -188 -253 -190 -106 -1 -184 2 -187 8 -3 5 -15 7 -26 4
-12 -3 -22 1 -26 11 -3 9 -10 14 -14 11 -17 -11 -29 65 -29 190 0 113 2 131
17 136 9 4 26 3 37 -1 18 -7 20 -19 25 -144z"/>
<path d="M1021 1407 c-8 -10 -7 -14 2 -14 8 0 14 6 14 14 0 7 -1 13 -2 13 -2
0 -8 -6 -14 -13z"/>
<path d="M644 1390 c0 -13 4 -16 10 -10 7 7 7 13 0 20 -6 6 -10 3 -10 -10z"/>
<path d="M1180 1699 c0 -5 5 -7 10 -4 6 3 10 8 10 11 0 2 -4 4 -10 4 -5 0 -10
-5 -10 -11z"/>
<path d="M2143 1635 c0 -33 2 -45 4 -27 2 18 2 45 0 60 -2 15 -4 0 -4 -33z"/>
<path d="M4736 1593 c-6 -14 -5 -15 5 -6 7 7 10 15 7 18 -3 3 -9 -2 -12 -12z"/>
<path d="M4737 1539 c7 -7 15 -10 18 -7 3 3 -2 9 -12 12 -14 6 -15 5 -6 -5z"/>
<path d="M4810 1476 c0 -2 8 -10 18 -17 15 -13 16 -12 3 4 -13 16 -21 21 -21
13z"/>
<path d="M5410 1471 c0 -6 4 -13 10 -16 6 -3 7 1 4 9 -7 18 -14 21 -14 7z"/>
<path d="M376 1424 c-32 -31 -14 -86 33 -97 33 -8 75 34 65 66 -3 12 -11 28
-16 35 -14 17 -63 15 -82 -4z m72 -6 c28 -28 7 -78 -33 -78 -27 0 -45 18 -45
45 0 27 18 45 45 45 12 0 26 -5 33 -12z"/>
<path d="M398 1413 c-9 -17 -7 -63 2 -63 6 0 10 8 10 18 1 15 2 15 15 -2 14
-19 15 -18 12 14 -2 33 -28 54 -39 33z m32 -13 c0 -5 -4 -10 -10 -10 -5 0 -10
5 -10 10 0 6 5 10 10 10 6 0 10 -4 10 -10z"/>
<path d="M4900 1431 c0 -6 4 -13 10 -16 6 -3 7 1 4 9 -7 18 -14 21 -14 7z"/>
<path d="M4892 1405 c4 -5 2 -15 -5 -24 -11 -14 -10 -14 6 -2 12 10 21 10 30
3 8 -7 18 -8 27 -1 13 9 13 10 0 7 -8 -1 -26 4 -40 11 -14 8 -22 10 -18 6z"/>
<path d="M3411 1344 c0 -11 3 -14 6 -6 3 7 2 16 -1 19 -3 4 -6 -2 -5 -13z"/>
<path d="M1790 1341 c0 -5 5 -13 10 -16 6 -3 10 -2 10 4 0 5 -4 13 -10 16 -5
3 -10 2 -10 -4z"/>
<path d="M1765 1320 c-8 -13 3 -30 18 -29 9 0 9 2 0 6 -7 2 -13 9 -13 14 0 6
5 7 12 3 7 -4 8 -3 4 4 -9 15 -13 15 -21 2z"/>
<path d="M1830 1316 c0 -2 7 -7 16 -10 8 -3 12 -2 9 4 -6 10 -25 14 -25 6z"/>
<path d="M1330 1300 c-9 -6 -10 -10 -3 -10 6 0 15 5 18 10 8 12 4 12 -15 0z"/>
<path d="M2316 1302 c-3 -5 1 -9 9 -9 8 0 12 4 9 9 -3 4 -7 8 -9 8 -2 0 -6 -4
-9 -8z"/>
<path d="M1735 1270 c-4 -6 -10 -8 -14 -6 -4 3 -8 -1 -8 -9 0 -13 3 -13 17 0
9 8 20 12 25 8 4 -5 5 -2 1 5 -9 15 -13 15 -21 2z"/>
<path d="M1474 1235 c-15 -23 -15 -27 0 -50 38 -57 116 -12 88 50 -9 19 -19
25 -42 25 -21 0 -34 -8 -46 -25z m62 -4 c-4 -5 0 -12 6 -15 11 -5 11 -7 0 -12
-6 -3 -10 -10 -6 -15 3 -5 -7 -4 -21 3 l-27 12 22 18 c24 20 34 23 26 9z"/>
<path d="M1612 1248 c-7 -7 -12 -24 -12 -38 0 -33 17 -50 50 -50 33 0 50 17
50 50 0 14 -5 31 -12 38 -15 15 -61 15 -76 0z m63 -18 c3 -6 -1 -7 -10 -4 -11
5 -14 2 -9 -10 3 -9 11 -16 17 -16 8 0 8 -3 1 -10 -13 -13 -44 -3 -44 14 0 13
20 36 31 36 4 0 11 -4 14 -10z"/>
<path d="M1739 1233 c-13 -16 -12 -17 4 -4 16 13 21 21 13 21 -2 0 -10 -8 -17
-17z"/>
<path d="M1736 1201 c-3 -5 1 -14 9 -21 8 -7 12 -17 9 -22 -3 -5 -13 -3 -23 6
-15 14 -18 14 -18 1 0 -8 3 -13 5 -10 3 3 11 0 19 -6 7 -6 13 -8 13 -4 0 4 8
1 17 -6 9 -8 14 -9 10 -2 -4 6 -1 14 5 16 10 4 10 6 0 6 -8 1 -10 6 -6 14 4 6
4 9 -1 5 -10 -10 -37 11 -29 23 3 5 3 9 0 9 -3 0 -7 -4 -10 -9z"/>
<path d="M5150 1171 c0 -10 19 -25 25 -20 1 2 -3 10 -11 17 -8 7 -14 8 -14 3z"/>
<path d="M5255 1159 c-4 -6 -5 -12 -2 -15 2 -3 7 2 10 11 7 17 1 20 -8 4z"/>
<path d="M4171 1044 c0 -11 3 -14 6 -6 3 7 2 16 -1 19 -3 4 -6 -2 -5 -13z"/>
<path d="M1255 1032 c16 -20 17 -25 5 -33 -13 -9 -13 -10 0 -6 8 2 16 14 16
26 1 12 -1 19 -4 16 -3 -2 -12 1 -21 7 -9 7 -8 3 4 -10z"/>
<path d="M1536 1038 c3 -5 10 -6 15 -3 13 9 11 12 -6 12 -8 0 -12 -4 -9 -9z"/>
<path d="M2060 1045 c-1 -3 -1 -60 -1 -127 0 -86 3 -123 11 -123 9 0 15 124
10 245 0 10 -20 15 -20 5z"/>
<path d="M2527 1036 c-8 -21 22 -44 33 -26 7 12 11 12 25 0 14 -12 18 -12 26
1 13 20 11 26 -8 33 -9 4 -20 1 -24 -6 -7 -10 -11 -10 -21 0 -16 16 -25 15
-31 -2z"/>
<path d="M742 1017 c-8 -18 -10 -53 -6 -95 l6 -67 -76 0 c-71 0 -77 2 -82 22
-4 13 -4 30 0 38 3 8 2 15 -3 15 -14 0 -19 -73 -7 -100 10 -23 17 -25 84 -28
59 -2 72 0 72 13 0 8 4 15 10 15 5 0 9 -6 7 -12 -2 -15 179 -22 188 -7 3 4 8
32 11 61 5 49 4 52 -10 34 -9 -11 -16 -28 -16 -38 0 -10 -7 -18 -16 -18 -9 0
-14 6 -11 13 23 62 16 81 -9 22 -20 -49 -47 -47 -40 3 l6 37 -18 -37 c-12 -27
-22 -36 -37 -34 -17 2 -21 15 -31 97 -10 86 -12 92 -22 66z m39 -184 c13 -16
12 -17 -3 -4 -10 7 -18 15 -18 17 0 8 8 3 21 -13z m73 -5 c-3 -4 -9 -8 -15 -8
-5 0 -9 4 -9 8 0 5 7 9 15 9 8 0 12 -4 9 -9z"/>
<path d="M1104 1015 c-6 -16 -9 -60 -6 -97 4 -60 3 -66 -14 -64 -12 2 -21 15
-25 35 -10 47 -27 61 -45 37 -17 -23 -28 -80 -20 -101 3 -8 16 -15 28 -15 22
-1 21 -2 -10 -30 -18 -17 -42 -30 -55 -30 -18 0 -19 -2 -7 -10 8 -5 30 -10 48
-10 27 0 35 5 49 35 9 19 22 35 29 35 7 0 18 8 23 18 10 16 10 16 11 0 0 -16
10 -18 74 -18 l74 0 7 38 c8 47 -12 132 -33 140 -20 7 -62 -42 -62 -74 0 -29
25 -42 51 -25 16 9 19 8 19 -9 0 -19 -5 -21 -52 -17 l-53 4 -10 94 c-9 85 -11
91 -21 64z m116 -90 c0 -9 -6 -12 -15 -9 -8 4 -12 10 -9 15 8 14 24 10 24 -6z
m-182 -59 c3 -12 -1 -17 -10 -14 -7 3 -15 13 -16 22 -3 12 1 17 10 14 7 -3 15
-13 16 -22z m107 -28 c5 4 5 1 1 -6 -6 -10 -11 -10 -22 -1 -8 6 -14 14 -14 16
0 3 6 0 13 -6 8 -6 18 -7 22 -3z m-75 -10 c0 -4 -7 -8 -15 -8 -8 0 -15 4 -15
8 0 5 7 9 15 9 8 0 15 -4 15 -9z m115 2 c-3 -5 -12 -10 -18 -10 -7 0 -6 4 3
10 19 12 23 12 15 0z"/>
<path d="M1170 1026 c-10 -13 -10 -19 0 -32 12 -14 15 -14 29 0 14 15 14 17 0
32 -14 14 -17 14 -29 0z"/>
<path d="M1381 1021 c-7 -12 -10 -29 -7 -39 3 -9 8 -40 11 -69 7 -55 -5 -74
-31 -52 -22 18 -28 4 -14 -31 l12 -30 202 0 c162 0 206 3 222 15 10 8 36 15
56 15 26 0 40 6 48 19 13 25 13 31 -2 31 -7 0 -33 14 -58 30 -25 16 -50 30
-57 30 -6 0 -22 -14 -34 -32 -19 -27 -20 -31 -5 -25 21 8 59 -10 51 -24 -4 -5
-28 -9 -54 -8 l-48 2 5 42 c3 27 0 45 -8 50 -15 9 -69 -42 -77 -73 -3 -12 -10
-21 -17 -19 -6 2 -19 0 -28 -5 -11 -5 -26 -5 -39 2 -12 7 -37 9 -60 5 -32 -6
-38 -10 -29 -20 9 -10 7 -13 -7 -10 -10 2 -22 4 -28 4 -16 2 78 61 96 61 9 0
23 -10 31 -22 8 -12 19 -18 26 -14 18 11 14 32 -11 61 l-22 27 -52 -35 -52
-35 5 31 c3 18 11 45 16 60 8 19 8 31 1 35 -5 4 -14 16 -20 26 -10 19 -11 18
-22 -3z m425 -132 c19 -11 34 -25 34 -31 0 -7 -5 -7 -13 1 -8 6 -18 7 -22 3
-5 -4 -5 -2 -1 5 4 7 -4 18 -21 27 -15 8 -24 15 -19 16 5 0 24 -9 42 -21z
m-153 -14 c4 -8 2 -17 -4 -21 -12 -7 -41 15 -33 27 8 14 31 11 37 -6z m-25
-43 c2 -7 -5 -12 -15 -11 -12 0 -14 2 -4 6 11 5 11 7 0 15 -12 8 -12 9 0 6 8
-3 17 -10 19 -16z m57 -2 c3 -5 2 -10 -4 -10 -5 0 -13 5 -16 10 -3 6 -2 10 4
10 5 0 13 -4 16 -10z"/>
<path d="M1593 1021 c-10 -15 -9 -22 6 -35 16 -15 19 -15 34 2 16 18 16 20 -1
35 -23 21 -25 21 -39 -2z"/>
<path d="M2361 1021 c-10 -18 -12 -44 -8 -95 l6 -71 -77 1 -77 1 -6 39 -5 39
-9 -39 c-6 -29 -4 -47 6 -65 13 -24 21 -26 86 -29 62 -2 72 0 76 15 4 17 5 17
6 1 1 -15 10 -18 51 -18 38 0 50 4 50 15 0 8 4 15 9 15 5 0 11 -7 15 -15 4
-11 23 -15 80 -15 l74 0 7 38 c8 47 -12 132 -33 140 -22 8 -64 -44 -60 -77 2
-20 9 -27 31 -29 17 -2 27 1 27 10 0 9 3 9 10 -2 18 -27 10 -31 -52 -26 -35 3
-67 5 -72 5 -5 1 -6 20 -2 44 6 39 5 41 -10 22 -9 -12 -14 -33 -12 -52 3 -28
2 -30 -15 -21 -10 5 -30 7 -43 4 -29 -8 -33 6 -36 114 -3 69 -4 73 -17 51z
m243 -97 c4 -10 1 -14 -6 -12 -15 5 -23 28 -10 28 5 0 13 -7 16 -16z m-216
-99 c-3 -3 -9 2 -12 12 -6 14 -5 15 5 6 7 -7 10 -15 7 -18z m117 5 c3 -5 1
-10 -4 -10 -6 0 -11 5 -11 10 0 6 2 10 4 10 3 0 8 -4 11 -10z"/>
<path d="M2882 1016 c-6 -14 -7 -28 -1 -37 5 -8 9 -38 9 -66 0 -44 -3 -53 -18
-53 -10 0 -23 5 -30 12 -16 16 -15 5 2 -37 l15 -35 203 0 c163 1 207 4 222 15
11 8 36 15 56 15 28 0 39 5 47 21 8 20 3 25 -54 55 -35 19 -65 34 -68 34 -7 0
-45 -43 -45 -52 0 -4 7 -5 15 -2 8 4 22 1 30 -6 16 -14 67 -21 59 -9 -3 5 -10
9 -15 9 -6 0 -17 7 -25 15 -9 8 -13 15 -11 15 8 0 92 -50 87 -51 -3 -1 -46 -3
-97 -4 l-92 -3 11 24 c8 18 8 31 -1 50 -11 24 -13 25 -34 12 -12 -8 -31 -31
-42 -51 -12 -22 -28 -37 -38 -37 -11 0 -17 5 -14 13 5 14 -22 64 -39 71 -6 2
-31 -9 -55 -25 l-44 -29 -3 29 c-2 17 4 40 12 53 13 21 13 25 -8 50 l-24 26
-10 -22z m134 -151 c9 -14 23 -25 32 -25 13 0 14 -2 3 -12 -11 -11 -14 -10
-18 0 -4 10 -8 10 -21 0 -15 -11 -15 -11 -4 4 11 14 10 17 -8 23 -22 7 -93 -5
-72 -12 6 -3 12 -9 12 -15 0 -7 -5 -6 -14 1 -11 9 -15 9 -18 -1 -3 -7 -7 -8
-11 -2 -6 11 68 64 90 64 7 0 20 -11 29 -25z m144 12 c0 -19 -10 -27 -26 -20
-21 8 -17 33 6 33 11 0 20 -6 20 -13z m-45 -37 c-3 -5 -1 -10 6 -10 7 0 10 -3
6 -6 -9 -9 -28 6 -22 17 4 5 8 9 11 9 3 0 2 -4 -1 -10z"/>
<path d="M3102 1028 c-16 -16 -15 -33 4 -49 14 -11 18 -10 29 5 11 14 11 22 2
37 -14 22 -19 23 -35 7z"/>
<path d="M663 995 c-35 -35 -36 -38 -19 -51 18 -13 18 -14 -4 -22 -19 -7 -21
-10 -7 -15 23 -9 45 1 58 24 12 23 4 39 -19 40 -13 0 -12 3 5 11 22 10 38 36
29 46 -3 2 -22 -12 -43 -33z"/>
<path d="M1470 1014 c-10 -11 -11 -20 -4 -32 16 -24 31 -25 43 -4 8 15 6 23
-8 36 -17 15 -19 15 -31 0z"/>
<path d="M2285 999 c-38 -34 -44 -55 -17 -62 14 -4 14 -6 -5 -12 -13 -4 -20
-11 -17 -16 15 -25 64 7 64 42 0 11 -7 19 -16 19 -13 0 -11 6 10 25 24 23 32
35 21 35 -2 0 -20 -14 -40 -31z"/>
<path d="M2414 1018 c-3 -5 0 -15 6 -24 10 -11 16 -12 26 -3 11 9 18 8 28 0
12 -10 17 -8 26 8 6 12 7 21 3 22 -42 6 -85 4 -89 -3z"/>
<path d="M2972 1009 c-12 -18 -11 -24 2 -37 15 -15 17 -15 32 0 13 13 14 19 2
37 -7 11 -15 21 -18 21 -3 0 -11 -10 -18 -21z"/>
<path d="M3045 1019 c-4 -6 -5 -12 -2 -15 2 -3 7 2 10 11 7 17 1 20 -8 4z"/>
<path d="M3183 1015 c0 -8 4 -12 9 -9 5 3 6 10 3 15 -9 13 -12 11 -12 -6z"/>
<path d="M1925 990 c-9 -38 -9 -46 1 -135 5 -52 8 -57 16 -35 10 27 9 154 -2
185 -6 17 -8 15 -15 -15z"/>
<path d="M3391 1011 c-8 -5 -9 -11 -3 -15 5 -3 12 1 16 9 6 17 6 18 -13 6z"/>
<path d="M3431 989 c-14 -41 -3 -195 12 -180 10 10 12 199 3 208 -2 2 -9 -10
-15 -28z"/>
<path d="M2141 994 c0 -11 3 -14 6 -6 3 7 2 16 -1 19 -3 4 -6 -2 -5 -13z"/>
<path d="M3501 984 c0 -11 3 -14 6 -6 3 7 2 16 -1 19 -3 4 -6 -2 -5 -13z"/>
<path d="M1560 980 c-9 -6 -10 -10 -3 -10 6 0 15 5 18 10 8 12 4 12 -15 0z"/>
<path d="M2515 979 c-6 -8 -4 -10 5 -4 9 5 10 1 6 -16 -6 -21 -6 -22 5 -6 7
13 8 22 1 29 -6 6 -12 6 -17 -3z"/>
<path d="M575 959 c-4 -6 -4 -13 -1 -16 3 -4 6 -1 6 6 0 7 5 9 12 5 7 -4 8 -3
4 4 -9 15 -13 15 -21 1z"/>
<path d="M983 963 c-16 -6 -17 -36 -2 -31 6 2 10 7 9 12 -1 5 4 13 12 17 14 9
1 11 -19 2z"/>
<path d="M3296 958 c3 -5 10 -6 15 -3 13 9 11 12 -6 12 -8 0 -12 -4 -9 -9z"/>
<path d="M815 949 c-4 -6 -4 -13 -1 -16 3 -4 6 -1 6 6 0 7 5 9 12 5 7 -4 8 -3
4 4 -9 15 -13 15 -21 1z"/>
<path d="M3191 957 c2 -1 13 -9 24 -17 19 -14 19 -14 6 3 -7 9 -18 17 -24 17
-6 0 -8 -1 -6 -3z"/>
<path d="M3330 956 c0 -3 9 -10 20 -16 11 -6 20 -8 20 -6 0 3 -9 10 -20 16
-11 6 -20 8 -20 6z"/>
<path d="M2726 928 c-20 -33 -28 -65 -21 -88 8 -25 31 -26 44 -2 9 15 10 15
11 0 0 -22 -55 -76 -87 -84 -32 -8 -11 -24 33 -24 26 0 33 6 47 38 22 54 27
95 16 135 -13 46 -25 53 -43 25z m21 -38 c2 -23 -12 -35 -22 -20 -4 6 -1 17 5
25 16 19 15 19 17 -5z"/>
<path d="M1567 919 c7 -7 15 -10 18 -7 3 3 -2 9 -12 12 -14 6 -15 5 -6 -5z"/>
<path d="M3400 803 c0 -6 8 -17 18 -24 16 -13 16 -13 2 6 -8 11 -16 22 -17 24
-2 2 -3 0 -3 -6z"/>
<path d="M1268 772 c3 -10 1 -13 -6 -8 -6 4 -10 -1 -9 -12 0 -10 9 -19 21 -20
15 -1 17 1 7 7 -10 6 -10 13 -3 28 8 15 8 20 -3 20 -7 0 -11 -7 -7 -15z"/>
<path d="M810 773 c0 -6 7 -16 15 -23 13 -11 18 -11 28 0 10 10 9 11 -2 5 -9
-5 -19 -1 -28 10 -7 11 -13 14 -13 8z"/>
<path d="M1926 763 c-8 -20 9 -40 19 -22 6 8 4 10 -5 4 -9 -5 -10 -2 -5 14 8
25 0 29 -9 4z"/>
<path d="M1205 760 c-3 -6 1 -7 9 -4 18 7 21 14 7 14 -6 0 -13 -4 -16 -10z"/>
<path d="M2327 745 c3 -8 9 -12 14 -9 12 7 11 11 -5 17 -10 4 -13 1 -9 -8z"/>
<path d="M2468 753 c6 -2 9 -10 6 -15 -4 -7 -2 -8 5 -4 13 9 5 26 -12 25 -9 0
-8 -2 1 -6z"/>
<path d="M876 742 c-3 -5 1 -9 9 -9 8 0 12 4 9 9 -3 4 -7 8 -9 8 -2 0 -6 -4
-9 -8z"/>
<path d="M3354 728 l-19 -23 22 18 c12 11 27 16 34 11 8 -4 10 -3 5 4 -10 17
-21 15 -42 -10z"/>
</g>
</svg>
